<svg width="2195" height="2195" viewBox="0 0 2195 2195" fill="none" xmlns="http://www.w3.org/2000/svg">
<path d="M1972.88 1488.52C2048.61 1400.25 2090.73 1305.11 2071.29 1236.56C2042.94 1137.99 1914.56 1081.99 1708.81 1079.3C1506.31 1076.61 1252.38 1125 993.579 1215.5C734.782 1306.45 501.905 1428.77 337.879 1560.04C171.422 1693.55 95.2818 1820.79 123.632 1919.36C135.377 1960.58 180.737 2002.7 226.098 2028.23C288.468 2058.7 376.354 2075.28 486.11 2076.62C491.78 2076.62 497.45 2076.62 503.12 2076.62C530.255 2076.62 600.726 2072.59 629.481 2070.8C802.822 2055.56 1000.87 2010.76 1201.75 1939.97C1332.97 1894.27 1496.19 1819.9 1608.78 1760.31C1702.33 1708.79 1786.17 1653.23 1857.45 1596.33C1902.81 1560.04 1941.29 1524.2 1972.88 1489.25M1954.71 1481.37C2028.02 1396.7 2073.72 1303.77 2055.9 1241.94C2030.39 1152.78 1903.62 1099.91 1708.81 1097.22C1703.14 1097.22 1697.47 1097.22 1691.8 1097.22C1494.16 1097.22 1248.73 1144.71 998.844 1232.53C741.262 1322.58 510.41 1444 347.599 1574.38C189.647 1701.17 113.912 1824.83 139.427 1913.98C149.957 1951.62 194.508 1990.6 238.653 2014.34C298.998 2042.12 382.834 2057.8 486.515 2059.15C530.255 2059.6 603.998 2055.16 652.193 2051.13C813.385 2032.76 1013.83 1987.46 1196.49 1923.39C1311.91 1883.07 1465.41 1814.52 1566.25 1763.45C1673.17 1706.55 1768.75 1645.17 1848.14 1581.55C1890.66 1547.49 1926.71 1513.44 1957.08 1480.74" stroke="#F76E4A" stroke-width="101.689"/>
<path d="M1972.88 996.966C2048.61 908.704 2090.73 813.56 2071.29 745.011C2042.94 646.444 1914.56 590.44 1708.81 587.752C1506.31 585.064 1252.38 633.452 993.579 723.954C734.782 814.904 501.905 937.217 337.879 1068.49C171.422 1202 95.2818 1329.25 123.632 1427.81C135.377 1469.03 180.737 1511.15 226.098 1536.68C288.468 1567.15 376.354 1583.73 486.11 1585.07C491.78 1585.07 497.45 1585.07 503.12 1585.07C530.255 1585.07 600.726 1581.04 629.481 1579.25C802.822 1564.01 1000.87 1519.21 1201.75 1448.42C1332.97 1402.72 1496.19 1328.35 1608.78 1268.76C1702.33 1217.24 1786.17 1161.68 1857.45 1104.78C1902.81 1068.49 1941.29 1032.65 1972.88 997.701M1954.71 989.825C2028.02 905.147 2073.72 812.216 2055.9 750.388C2030.39 661.23 1903.62 608.362 1708.81 605.674C1703.14 605.674 1697.47 605.674 1691.8 605.674C1494.16 605.674 1248.73 653.165 998.844 740.979C741.262 831.034 510.41 952.45 347.599 1082.83C189.647 1209.62 113.912 1333.28 139.427 1422.44C149.957 1460.07 194.508 1499.05 238.653 1522.79C298.998 1550.57 382.834 1566.25 486.515 1567.6C530.255 1568.05 603.998 1563.61 652.193 1559.58C813.385 1541.21 1013.83 1495.91 1196.49 1431.84C1311.91 1391.52 1465.41 1322.97 1566.25 1271.9C1673.17 1215 1768.75 1153.62 1848.14 1090C1890.66 1055.95 1926.71 1021.9 1957.08 989.189" stroke="#F76E4A" stroke-width="101.689"/>
<path d="M1972.88 527.754C2048.61 439.492 2090.73 344.348 2071.29 275.8C2042.94 177.233 1914.56 121.229 1708.81 118.54C1506.31 115.852 1252.38 164.24 993.579 254.742C734.782 345.693 501.905 468.005 337.879 599.279C171.422 732.792 95.2818 860.033 123.632 958.6C135.377 999.819 180.737 1041.93 226.098 1067.47C288.468 1097.94 376.354 1114.52 486.11 1115.86C491.78 1115.86 497.45 1115.86 503.12 1115.86C530.255 1115.86 600.726 1111.83 629.481 1110.03C802.822 1094.8 1000.87 1050 1201.75 979.21C1332.97 933.51 1496.19 859.137 1608.78 799.549C1702.33 748.025 1786.17 692.469 1857.45 635.569C1902.81 599.279 1941.29 563.436 1972.88 528.489M1954.71 520.613C2028.02 435.935 2073.72 343.004 2055.9 281.176C2030.39 192.018 1903.62 139.15 1708.81 136.462C1703.14 136.462 1697.47 136.462 1691.8 136.462C1494.16 136.462 1248.73 183.953 998.844 271.767C741.262 361.822 510.41 483.238 347.599 613.616C189.647 740.409 113.912 864.065 139.427 953.224C149.957 990.858 194.508 1029.84 238.653 1053.58C298.998 1081.36 382.834 1097.04 486.515 1098.39C530.255 1098.83 603.998 1094.4 652.193 1090.37C813.385 1072 1013.83 1026.7 1196.49 962.632C1311.91 922.31 1465.41 853.761 1566.25 802.685C1673.17 745.785 1768.75 684.405 1848.14 620.784C1890.66 586.734 1926.71 552.683 1957.08 519.977" stroke="#F76E4A" stroke-width="101.689"/>
</svg>
