<svg width="2251" height="2195" viewBox="0 0 2251 2195" fill="none" xmlns="http://www.w3.org/2000/svg">
<path d="M1546.92 2158.89C1531.09 2158.89 1515.79 2156.11 1501.03 2150.52C1423.15 2121.08 1381.76 2022.05 1337.94 1917.19C1287.07 1795.45 1234.46 1669.58 1133.45 1669.58C1032.43 1669.58 979.854 1795.45 928.991 1917.19C885.2 2022.02 843.805 2121.06 765.928 2150.52C729.593 2164.24 689.737 2161.02 647.485 2140.92C605.262 2120.82 577.863 2092.03 566.086 2055.34C540.818 1976.79 593.279 1883.05 648.875 1783.8C713.408 1668.59 780.131 1549.42 717.166 1471.36C654.201 1393.28 521.852 1431.08 393.881 1467.65C283.663 1499.13 179.541 1528.85 107.759 1487.05C74.2053 1467.5 51.9251 1434.67 41.4803 1389.53C31.0651 1344.36 36.7462 1305.21 58.405 1273.2C104.741 1204.68 211.585 1186.81 324.703 1167.9C456.046 1145.96 591.858 1123.26 614.346 1025.89C636.833 928.52 524.396 849.788 415.717 773.689C322.099 708.123 233.658 646.185 221.971 564.557C216.527 526.434 228.569 488.75 257.773 452.5C284.995 418.737 318.075 399.749 356.066 396.033C444.389 387.198 534.871 463.033 630.886 543.023C761.105 651.598 851.35 718.393 916.445 659.322C1024.56 561.221 1007.61 422.014 992.666 299.22C981.54 207.703 971.894 128.649 1017.37 77.9459C1042.97 49.4198 1080.93 35.5518 1133.48 35.5518C1180.32 35.5518 1217.66 49.7416 1244.41 77.7411C1301.66 137.66 1295.51 244.655 1288.97 357.911C1281.39 489.423 1273.55 625.383 1364.56 668.742C1455.58 712.073 1558.16 621.228 1657.4 533.368C1742.89 457.679 1823.84 386.32 1906.69 393.108C1945.51 396.326 1979.98 416.338 2009.18 452.559C2038.39 488.78 2050.46 526.493 2044.98 564.615C2033.3 646.244 1944.86 708.152 1851.24 773.718C1742.53 849.846 1630.12 928.549 1652.61 1025.92C1675.07 1123.29 1810.91 1145.99 1942.25 1167.93C2055.37 1186.83 2162.21 1204.68 2208.55 1273.23C2230.21 1305.24 2235.89 1344.36 2225.48 1389.53C2215.03 1434.7 2192.75 1467.53 2159.2 1487.05C2087.39 1528.94 1983.29 1499.16 1873.07 1467.68C1745.13 1431.11 1612.81 1393.3 1549.82 1471.39C1486.85 1549.45 1553.58 1668.62 1618.14 1783.83C1673.71 1883.08 1726.23 1976.82 1700.93 2055.37C1689.12 2092.06 1661.72 2120.85 1619.53 2140.95C1594.38 2152.92 1570.12 2158.89 1546.92 2158.89ZM605.262 1347.49C672.398 1347.49 733.351 1366.5 778.77 1422.83C874.577 1541.64 791.285 1690.36 717.787 1821.58C672.753 1902.03 626.151 1985.18 641.153 2031.76C643.017 2037.53 648.639 2055.05 681.689 2070.79C714.74 2086.53 732.079 2079.95 737.819 2077.78C783.977 2060.32 820.697 1972.46 856.203 1887.49C914.137 1748.87 979.794 1591.73 1133.48 1591.73C1287.16 1591.73 1352.85 1748.87 1410.75 1887.49C1446.26 1972.46 1482.98 2060.35 1529.14 2077.78C1534.88 2079.95 1552.25 2086.5 1585.27 2070.79C1618.32 2055.05 1623.94 2037.53 1625.8 2031.76C1640.77 1985.21 1594.2 1902.03 1549.17 1821.61C1475.67 1690.39 1392.38 1541.67 1488.19 1422.85C1583.96 1304.07 1749.16 1351.23 1894.91 1392.89C1984.21 1418.41 2076.56 1444.83 2119.19 1419.99C2124.46 1416.92 2140.5 1407.58 2148.66 1372.24C2156.83 1336.9 2146.47 1321.59 2143.07 1316.56C2115.61 1275.92 2020.81 1260.1 1929.12 1244.76C1779.55 1219.78 1610 1191.43 1575.83 1043.27C1541.65 895.108 1681.93 796.861 1805.73 710.171C1881.6 657.04 1960.07 602.065 1967.02 553.673C1967.88 547.675 1970.48 529.477 1947.64 501.126C1924.8 472.776 1906.24 471.254 1900.15 470.728C1851.09 466.69 1779.28 530.062 1709.98 591.386C1596.95 691.446 1468.92 804.819 1330.42 738.902C1191.94 672.956 1201.74 503.233 1210.35 353.493C1215.65 261.683 1221.12 166.772 1187.18 131.253C1182.98 126.864 1170.2 113.464 1133.54 113.464C1105.22 113.464 1085.99 118.906 1076.34 129.644C1054.36 154.162 1062.41 220.108 1070.9 289.946C1086.4 417.274 1107.65 591.62 969.734 716.754C848.776 826.587 706.041 707.596 580.141 602.621C500.873 536.557 419.031 468.182 363.848 473.566C353.463 474.59 337.603 478.51 319.406 501.097C296.564 529.448 299.138 547.675 300.026 553.644C306.949 602.035 385.418 656.981 461.313 710.113C585.112 796.803 725.421 895.078 691.246 1043.21C657.042 1191.37 487.529 1219.72 337.958 1244.71C246.263 1260.01 151.461 1275.86 124.003 1316.5C120.6 1321.54 110.244 1336.84 118.411 1372.18C126.548 1407.52 142.585 1416.89 147.881 1419.96C190.459 1444.74 282.835 1418.38 372.163 1392.84C448.708 1370.95 530.758 1347.49 605.262 1347.49Z" fill="#2D9F66" stroke="#2D9F66" stroke-width="40.6757"/>
</svg>
