<svg width="2160" height="2160" viewBox="0 0 2160 2160" fill="none" xmlns="http://www.w3.org/2000/svg">
<path d="M1474.05 2125.32C1458.96 2125.32 1444.39 2122.59 1430.32 2117.08C1356.13 2088.11 1316.69 1990.61 1274.95 1887.38C1226.49 1767.54 1176.37 1643.63 1080.13 1643.63C983.896 1643.63 933.804 1767.54 885.347 1887.38C843.628 1990.58 804.191 2088.08 729.998 2117.08C695.382 2130.59 657.411 2127.42 617.158 2107.64C576.932 2087.85 550.829 2059.51 539.61 2023.39C515.536 1946.05 565.515 1853.77 618.482 1756.07C679.963 1642.65 743.529 1525.33 683.543 1448.49C623.556 1371.61 497.467 1408.83 375.55 1444.83C270.546 1475.82 171.349 1505.09 102.962 1463.93C70.9962 1444.69 49.7699 1412.37 39.8192 1367.93C29.8966 1323.46 35.3089 1284.92 55.9433 1253.41C100.087 1185.95 201.878 1168.35 309.644 1149.75C434.775 1128.15 564.162 1105.8 585.586 1009.94C607.01 914.085 499.891 836.577 396.353 761.662C307.163 697.115 222.907 636.14 211.772 555.78C206.585 518.251 218.058 481.153 245.881 445.466C271.814 412.228 303.33 393.535 339.524 389.877C423.668 381.179 509.87 455.835 601.343 534.582C725.403 641.468 811.38 707.225 873.395 649.072C976.398 552.497 960.245 415.454 946.01 294.569C935.411 204.475 926.221 126.65 969.548 76.735C993.931 48.6524 1030.1 35 1080.16 35C1124.78 35 1160.36 48.9693 1185.84 76.5334C1240.39 135.521 1234.52 240.852 1228.29 352.347C1221.08 481.815 1213.61 615.661 1300.32 658.347C1387.03 701.003 1484.76 611.571 1579.3 525.077C1660.74 450.564 1737.87 380.315 1816.8 386.997C1853.78 390.165 1886.62 409.866 1914.44 445.524C1942.26 481.182 1953.77 518.308 1948.55 555.838C1937.42 636.197 1853.16 697.144 1763.97 761.69C1660.4 836.635 1553.31 914.114 1574.74 1009.97C1596.13 1105.82 1725.55 1128.18 1850.68 1149.78C1958.45 1168.38 2060.24 1185.95 2104.38 1253.44C2125.01 1284.95 2130.43 1323.46 2120.5 1367.93C2110.55 1412.4 2089.33 1444.72 2057.36 1463.93C1988.95 1505.17 1889.78 1475.85 1784.77 1444.86C1662.88 1408.86 1536.82 1371.64 1476.81 1448.52C1416.82 1525.36 1480.39 1642.68 1541.9 1756.1C1594.84 1853.8 1644.87 1946.08 1620.77 2023.42C1609.52 2059.54 1583.42 2087.88 1543.22 2107.67C1519.26 2119.45 1496.15 2125.32 1474.05 2125.32ZM576.932 1326.54C640.893 1326.54 698.962 1345.26 742.232 1400.71C833.508 1517.67 754.156 1664.08 684.134 1793.26C641.231 1872.46 596.833 1954.32 611.125 2000.17C612.901 2005.85 618.257 2023.1 649.744 2038.6C681.231 2054.09 697.75 2047.61 703.218 2045.48C747.193 2028.29 782.176 1941.79 816.003 1858.15C871.197 1721.68 933.748 1566.98 1080.16 1566.98C1226.57 1566.98 1289.15 1721.68 1344.32 1858.15C1378.15 1941.79 1413.13 2028.32 1457.1 2045.48C1462.57 2047.61 1479.12 2054.06 1510.58 2038.6C1542.07 2023.1 1547.42 2005.85 1549.2 2000.17C1563.46 1954.35 1519.09 1872.46 1476.19 1793.29C1406.17 1664.11 1326.81 1517.7 1418.09 1400.73C1509.34 1283.8 1666.72 1330.23 1805.58 1371.24C1890.65 1396.36 1978.63 1422.37 2019.25 1397.91C2024.27 1394.89 2039.54 1385.7 2047.32 1350.91C2055.1 1316.11 2045.24 1301.05 2042 1296.09C2015.84 1256.09 1925.52 1240.51 1838.16 1225.41C1695.67 1200.82 1534.14 1172.91 1501.59 1027.05C1469.03 881.192 1602.67 784.473 1720.61 699.131C1792.89 646.826 1867.65 592.705 1874.27 545.066C1875.09 539.161 1877.57 521.246 1855.81 493.336C1834.05 465.427 1816.37 463.929 1810.57 463.41C1763.83 459.436 1695.41 521.822 1629.4 582.192C1521.71 680.697 1399.74 792.308 1267.79 727.415C1135.86 662.494 1145.19 495.41 1153.4 347.998C1158.44 257.616 1163.66 164.18 1131.32 129.213C1127.32 124.893 1115.14 111.701 1080.22 111.701C1053.24 111.701 1034.92 117.059 1025.73 127.629C1004.78 151.766 1012.45 216.687 1020.54 285.439C1035.31 410.788 1055.55 582.423 924.164 705.612C808.927 813.737 672.943 696.596 552.999 593.253C477.481 528.216 399.51 460.905 346.938 466.204C337.044 467.212 321.934 471.072 304.598 493.307C282.836 521.217 285.289 539.161 286.134 545.037C292.731 592.677 367.488 646.768 439.793 699.073C557.735 784.416 691.407 881.164 658.849 1026.99C626.263 1172.85 464.768 1200.76 322.273 1225.36C234.915 1240.42 144.598 1256.03 118.438 1296.04C115.196 1300.99 105.33 1316.05 113.11 1350.85C120.862 1385.64 136.141 1394.86 141.187 1397.88C181.751 1422.28 269.757 1396.33 354.859 1371.18C427.784 1349.64 505.952 1326.54 576.932 1326.54Z" fill="#F8F6F6" stroke="#F8F6F6" stroke-width="40"/>
</svg>
