<svg width="2195" height="2195" viewBox="0 0 2195 2195" fill="none" xmlns="http://www.w3.org/2000/svg">
<path d="M88.5846 1453.61L88.5911 1453.2V1452.79V1095.03C88.5911 538.7 540.399 87.5359 1098.04 87.5359C1655.6 87.5359 2107.5 538.703 2107.5 1095.03V1624.26V1844.48C2107.5 1986.7 1992.2 2101.99 1849.98 2101.99H1814.56C1672.33 2101.99 1557.04 1986.7 1557.04 1844.48V1095.31C1557.89 1034.69 1546.67 974.506 1524.04 918.245C1501.37 861.864 1467.69 810.551 1424.97 767.288C1382.25 724.026 1331.34 689.677 1275.21 666.233C1219.08 642.79 1158.84 630.719 1098 630.719C1037.16 630.719 976.921 642.79 920.79 666.233C864.659 689.677 813.753 724.026 771.033 767.288C728.313 810.551 694.634 861.864 671.959 918.245C649.332 974.506 638.115 1034.69 638.958 1095.31V1452.7C638.958 1464.96 639.667 1482.41 649.021 1498.67C653.868 1507.1 659.532 1512.61 662.646 1515.47C665.366 1517.98 665.676 1518.2 665.81 1518.29C665.894 1518.35 665.909 1518.36 666.407 1518.86C683.966 1536.38 707.758 1546.2 732.545 1546.2C757.332 1546.2 781.124 1536.38 798.683 1518.86C799.181 1518.36 799.196 1518.35 799.28 1518.29C799.414 1518.2 799.724 1517.98 802.444 1515.47C805.558 1512.61 811.221 1507.1 816.069 1498.67C825.423 1482.41 826.132 1464.96 826.132 1452.7V1101.82V1101.22L826.118 1100.62C825.266 1064.05 831.747 1027.68 845.185 993.634C858.623 959.592 878.747 928.568 904.38 902.386C930.014 876.204 960.64 855.393 994.461 841.183C1028.28 826.973 1064.61 819.651 1101.32 819.651C1138.02 819.651 1174.35 826.973 1208.17 841.183C1241.99 855.393 1272.62 876.204 1298.25 902.386C1323.88 928.568 1344.01 959.592 1357.45 993.634C1370.88 1027.68 1377.37 1064.05 1376.51 1100.62L1376.5 1101.22V1101.82V1452.79V1453.2L1376.51 1453.61C1377.87 1538.84 1362.22 1623.48 1330.48 1702.61C1298.74 1781.75 1251.53 1853.8 1191.61 1914.56C1131.68 1975.32 1060.23 2023.58 981.415 2056.53C902.601 2089.47 818.001 2106.44 732.545 2106.44C647.089 2106.44 562.489 2089.47 483.675 2056.53C404.861 2023.58 333.411 1975.32 273.484 1914.56C213.557 1853.8 166.351 1781.75 134.609 1702.61C102.867 1623.48 87.2228 1538.84 88.5846 1453.61Z" stroke="#2D9F66" stroke-width="103.005"/>
</svg>
