<svg width="2160" height="2160" viewBox="0 0 2160 2160" fill="none" xmlns="http://www.w3.org/2000/svg">
<path d="M70.5846 1436.58L70.5911 1436.17V1435.76V1078C70.5911 521.667 522.399 70.5027 1080.04 70.5027C1637.6 70.5027 2089.5 521.67 2089.5 1078V1607.23V1827.45C2089.5 1969.67 1974.2 2084.96 1831.98 2084.96H1796.56C1654.33 2084.96 1539.04 1969.67 1539.04 1827.45V1078.28C1539.89 1017.66 1528.67 957.472 1506.04 901.212C1483.37 844.831 1449.69 793.518 1406.97 750.255C1364.25 706.992 1313.34 672.643 1257.21 649.2C1201.08 625.757 1140.84 613.685 1080 613.685C1019.16 613.685 958.921 625.757 902.79 649.2C846.659 672.643 795.753 706.992 753.033 750.255C710.313 793.518 676.634 844.83 653.959 901.212C631.332 957.472 620.115 1017.66 620.958 1078.28V1435.67C620.958 1447.93 621.667 1465.38 631.021 1481.64C635.868 1490.07 641.532 1495.57 644.646 1498.44C647.366 1500.94 647.676 1501.16 647.81 1501.26C647.894 1501.31 647.909 1501.33 648.407 1501.82C665.966 1519.34 689.758 1529.17 714.545 1529.17C739.332 1529.17 763.124 1519.34 780.683 1501.82C781.181 1501.33 781.196 1501.31 781.28 1501.26C781.414 1501.16 781.724 1500.94 784.444 1498.44C787.558 1495.57 793.221 1490.07 798.069 1481.64C807.423 1465.38 808.132 1447.93 808.132 1435.67V1084.79V1084.19L808.118 1083.59C807.266 1047.02 813.747 1010.64 827.185 976.601C840.623 942.559 860.747 911.534 886.38 885.353C912.014 859.171 942.64 838.36 976.461 824.15C1010.28 809.94 1046.61 802.618 1083.32 802.618C1120.02 802.618 1156.35 809.94 1190.17 824.15C1223.99 838.36 1254.62 859.171 1280.25 885.353C1305.88 911.534 1326.01 942.559 1339.45 976.601C1352.88 1010.64 1359.37 1047.02 1358.51 1083.59L1358.5 1084.19V1084.79V1435.76V1436.17L1358.51 1436.58C1359.87 1521.8 1344.22 1606.45 1312.48 1685.58C1280.74 1764.71 1233.53 1836.76 1173.61 1897.53C1113.68 1958.29 1042.23 2006.55 963.415 2039.5C884.601 2072.44 800.001 2089.41 714.545 2089.41C629.089 2089.41 544.489 2072.44 465.675 2039.5C386.861 2006.55 315.411 1958.29 255.484 1897.53C195.557 1836.76 148.351 1764.71 116.609 1685.58C84.8671 1606.45 69.2228 1521.8 70.5846 1436.58Z" stroke="#F8F6F6" stroke-width="103.005"/>
</svg>
