<svg width="2195" height="2195" viewBox="0 0 2195 2195" fill="none" xmlns="http://www.w3.org/2000/svg">
<path d="M1097.93 1840.68C1508.37 1840.68 1841.1 1507.95 1841.1 1097.5C1841.1 687.063 1508.37 354.342 1097.93 354.342C687.492 354.342 354.765 687.063 354.765 1097.5C354.765 1507.95 687.492 1840.68 1097.93 1840.68Z" stroke="#429ED6" stroke-width="101.689" stroke-linecap="round" stroke-linejoin="round"/>
<path d="M1097.93 1604.75C1378.07 1604.75 1605.17 1377.65 1605.17 1097.5C1605.17 817.361 1378.07 590.266 1097.93 590.266C817.789 590.266 590.689 817.361 590.689 1097.5C590.689 1377.65 817.789 1604.75 1097.93 1604.75Z" stroke="#429ED6" stroke-width="101.689" stroke-linecap="round" stroke-linejoin="round"/>
<path d="M1097.93 1416.01C1273.84 1416.01 1416.43 1273.41 1416.43 1097.5C1416.43 921.6 1273.84 779.005 1097.93 779.005C922.03 779.005 779.433 921.6 779.433 1097.5C779.433 1273.41 922.03 1416.01 1097.93 1416.01Z" fill="#429ED6"/>
<path d="M1097.93 2076.6C1638.67 2076.6 2077.03 1638.25 2077.03 1097.51C2077.03 556.772 1638.67 118.417 1097.93 118.417C557.196 118.417 118.84 556.772 118.84 1097.51C118.84 1638.25 557.196 2076.6 1097.93 2076.6Z" stroke="#429ED6" stroke-width="101.689" stroke-linecap="round" stroke-linejoin="round"/>
</svg>
