<svg width="2160" height="2160" viewBox="0 0 2160 2160" fill="none" xmlns="http://www.w3.org/2000/svg">
<path d="M1080 1811.61C1484.06 1811.61 1811.61 1484.06 1811.61 1080C1811.61 675.935 1484.06 348.387 1080 348.387C675.941 348.387 348.387 675.935 348.387 1080C348.387 1484.06 675.941 1811.61 1080 1811.61Z" stroke="#F8F6F6" stroke-width="100" stroke-linecap="round" stroke-linejoin="round"/>
<path d="M1080 1579.35C1355.79 1579.35 1579.35 1355.78 1579.35 1080C1579.35 804.21 1355.79 580.645 1080 580.645C804.214 580.645 580.645 804.21 580.645 1080C580.645 1355.78 804.214 1579.35 1080 1579.35Z" stroke="#F8F6F6" stroke-width="100" stroke-linecap="round" stroke-linejoin="round"/>
<path d="M1080 1393.55C1253.17 1393.55 1393.55 1253.17 1393.55 1080C1393.55 906.829 1253.17 766.452 1080 766.452C906.832 766.452 766.451 906.829 766.451 1080C766.451 1253.17 906.832 1393.55 1080 1393.55Z" fill="#F8F6F6"/>
<path d="M1080 2043.87C1612.33 2043.87 2043.87 1612.33 2043.87 1080C2043.87 547.669 1612.33 116.129 1080 116.129C547.669 116.129 116.129 547.669 116.129 1080C116.129 1612.33 547.669 2043.87 1080 2043.87Z" stroke="#F8F6F6" stroke-width="100" stroke-linecap="round" stroke-linejoin="round"/>
</svg>
