<svg width="2029" height="2028" viewBox="0 0 2029 2028" fill="none" xmlns="http://www.w3.org/2000/svg">
<path d="M1877.21 1398.78C1951.77 1311.89 1993.23 1218.23 1974.09 1150.74C1946.19 1053.71 1819.8 998.575 1617.25 995.929C1417.9 993.282 1167.91 1040.92 913.136 1130.01C658.363 1219.55 429.107 1339.96 267.63 1469.19C103.762 1600.63 28.8051 1725.89 56.7146 1822.93C68.2771 1863.51 112.932 1904.97 157.587 1930.11C218.988 1960.1 305.508 1976.42 413.557 1977.74C419.139 1977.74 424.721 1977.74 430.303 1977.74C457.016 1977.74 526.391 1973.77 554.699 1972.01C725.346 1957.01 920.313 1912.91 1118.07 1843.22C1247.25 1798.23 1407.93 1725.01 1518.77 1666.35C1610.87 1615.63 1693.41 1560.93 1763.58 1504.92C1808.23 1469.19 1846.11 1433.91 1877.21 1399.5M1859.33 1391.75C1931.49 1308.39 1976.49 1216.9 1958.94 1156.04C1933.83 1068.26 1809.03 1016.22 1617.25 1013.57C1611.67 1013.57 1606.09 1013.57 1600.51 1013.57C1405.94 1013.57 1164.32 1060.32 918.32 1146.77C664.742 1235.43 437.479 1354.96 277.199 1483.31C121.704 1608.13 47.1456 1729.86 72.2641 1817.64C82.6305 1854.68 126.488 1893.06 169.947 1916.43C229.355 1943.78 311.887 1959.22 413.956 1960.54C457.016 1960.98 529.612 1956.62 577.058 1952.65C735.744 1934.56 933.072 1889.97 1112.89 1826.9C1226.52 1787.2 1377.63 1719.72 1476.91 1669.44C1582.17 1613.42 1676.26 1553 1754.41 1490.36C1796.27 1456.84 1831.76 1423.32 1861.66 1391.12" stroke="#1E1E1E" stroke-width="100"/>
<path d="M1877.21 914.87C1951.77 827.98 1993.23 734.316 1974.09 666.833C1946.19 569.798 1819.8 514.665 1617.25 512.019C1417.9 509.372 1167.91 557.007 913.136 646.103C658.363 735.639 429.107 856.05 267.63 985.283C103.762 1116.72 28.8051 1241.98 56.7146 1339.02C68.2771 1379.6 112.932 1421.06 157.587 1446.2C218.988 1476.19 305.508 1492.51 413.557 1493.83C419.139 1493.83 424.721 1493.83 430.303 1493.83C457.016 1493.83 526.391 1489.86 554.699 1488.1C725.346 1473.1 920.313 1429 1118.07 1359.31C1247.25 1314.32 1407.93 1241.1 1518.77 1182.44C1610.87 1131.72 1693.41 1077.02 1763.58 1021.01C1808.23 985.283 1846.11 949.997 1877.21 915.594M1859.33 907.84C1931.49 824.479 1976.49 732.993 1958.94 672.126C1933.83 584.354 1809.03 532.308 1617.25 529.661C1611.67 529.661 1606.09 529.661 1600.51 529.661C1405.94 529.661 1164.32 576.414 918.32 662.863C664.742 751.518 437.479 871.047 277.199 999.397C121.704 1124.22 47.1456 1245.95 72.2641 1333.73C82.6305 1370.77 126.488 1409.15 169.947 1432.52C229.355 1459.87 311.887 1475.31 413.956 1476.63C457.016 1477.07 529.612 1472.71 577.058 1468.74C735.744 1450.65 933.072 1406.06 1112.89 1342.99C1226.52 1303.29 1377.63 1235.81 1476.91 1185.53C1582.17 1129.51 1676.26 1069.09 1754.41 1006.45C1796.27 972.933 1831.76 939.412 1861.66 907.214" stroke="#1E1E1E" stroke-width="100"/>
<path d="M1877.21 452.956C1951.77 366.066 1993.23 272.402 1974.09 204.919C1946.19 107.884 1819.8 52.751 1617.25 50.1046C1417.9 47.4582 1167.91 95.0934 913.136 184.189C658.363 273.725 429.107 394.136 267.63 523.369C103.762 654.806 28.8051 780.069 56.7146 877.104C68.2771 917.682 112.932 959.142 157.587 984.283C218.988 1014.28 305.508 1030.6 413.557 1031.92C419.139 1031.92 424.721 1031.92 430.303 1031.92C457.016 1031.92 526.391 1027.95 554.699 1026.18C725.346 1011.19 920.313 967.081 1118.07 897.393C1247.25 852.404 1407.93 779.187 1518.77 720.525C1610.87 669.803 1693.41 615.111 1763.58 559.095C1808.23 523.369 1846.11 488.083 1877.21 453.68M1859.33 445.926C1931.49 362.565 1976.49 271.079 1958.94 210.212C1933.83 122.44 1809.03 70.3937 1617.25 67.7473C1611.67 67.7473 1606.09 67.7473 1600.51 67.7473C1405.94 67.7473 1164.32 114.5 918.32 200.949C664.742 289.604 437.479 409.133 277.199 537.483C121.704 662.305 47.1456 784.039 72.2641 871.811C82.6305 908.861 126.488 947.234 169.947 970.61C229.355 997.956 311.887 1013.39 413.956 1014.72C457.016 1015.16 529.612 1010.79 577.058 1006.82C735.744 988.738 933.072 944.146 1112.89 881.074C1226.52 841.378 1377.63 773.894 1476.91 723.613C1582.17 667.597 1676.26 607.171 1754.41 544.54C1796.27 511.019 1831.76 477.498 1861.66 445.3" stroke="#1E1E1E" stroke-width="100"/>
</svg>
