<svg width="2160" height="2160" viewBox="0 0 2160 2160" fill="none" xmlns="http://www.w3.org/2000/svg">
<path d="M1942.21 1464.78C2016.77 1377.89 2058.23 1284.23 2039.09 1216.74C2011.19 1119.71 1884.8 1064.57 1682.25 1061.93C1482.9 1059.28 1232.91 1106.92 978.136 1196.01C723.363 1285.55 494.107 1405.96 332.63 1535.19C168.762 1666.63 93.8051 1791.89 121.715 1888.93C133.277 1929.51 177.932 1970.97 222.587 1996.11C283.988 2026.1 370.508 2042.42 478.557 2043.74C484.139 2043.74 489.721 2043.74 495.303 2043.74C522.016 2043.74 591.391 2039.77 619.699 2038.01C790.346 2023.01 985.313 1978.91 1183.07 1909.22C1312.25 1864.23 1472.93 1791.01 1583.77 1732.35C1675.87 1681.63 1758.41 1626.93 1828.58 1570.92C1873.23 1535.19 1911.11 1499.91 1942.21 1465.5M1924.33 1457.75C1996.49 1374.39 2041.49 1282.9 2023.94 1222.04C1998.83 1134.26 1874.03 1082.22 1682.25 1079.57C1676.67 1079.57 1671.09 1079.57 1665.51 1079.57C1470.94 1079.57 1229.32 1126.32 983.32 1212.77C729.742 1301.43 502.479 1420.96 342.199 1549.31C186.704 1674.13 112.146 1795.86 137.264 1883.63C147.631 1920.68 191.488 1959.06 234.947 1982.43C294.355 2009.78 376.887 2025.22 478.956 2026.54C522.016 2026.98 594.612 2022.61 642.058 2018.65C800.744 2000.56 998.072 1955.97 1177.89 1892.9C1291.52 1853.2 1442.63 1785.72 1541.91 1735.44C1647.17 1679.42 1741.26 1619 1819.41 1556.36C1861.27 1522.84 1896.76 1489.32 1926.66 1457.12" stroke="#F8F6F6" stroke-width="100"/>
<path d="M1942.21 980.87C2016.77 893.98 2058.23 800.316 2039.09 732.833C2011.19 635.798 1884.8 580.665 1682.25 578.018C1482.9 575.372 1232.91 623.007 978.136 712.103C723.363 801.639 494.107 922.05 332.63 1051.28C168.762 1182.72 93.8051 1307.98 121.715 1405.02C133.277 1445.6 177.932 1487.06 222.587 1512.2C283.988 1542.19 370.508 1558.51 478.557 1559.83C484.139 1559.83 489.721 1559.83 495.303 1559.83C522.016 1559.83 591.391 1555.86 619.699 1554.1C790.346 1539.1 985.313 1495 1183.07 1425.31C1312.25 1380.32 1472.93 1307.1 1583.77 1248.44C1675.87 1197.72 1758.41 1143.02 1828.58 1087.01C1873.23 1051.28 1911.11 1016 1942.21 981.594M1924.33 973.84C1996.49 890.478 2041.49 798.993 2023.94 738.126C1998.83 650.353 1874.03 598.307 1682.25 595.661C1676.67 595.661 1671.09 595.661 1665.51 595.661C1470.94 595.661 1229.32 642.414 983.32 728.863C729.742 817.517 502.479 937.046 342.199 1065.4C186.704 1190.22 112.146 1311.95 137.264 1399.72C147.631 1436.77 191.488 1475.15 234.947 1498.52C294.355 1525.87 376.887 1541.31 478.956 1542.63C522.016 1543.07 594.612 1538.71 642.058 1534.74C800.744 1516.65 998.072 1472.06 1177.89 1408.99C1291.52 1369.29 1442.63 1301.81 1541.91 1251.53C1647.17 1195.51 1741.26 1135.09 1819.41 1072.45C1861.27 1038.93 1896.76 1005.41 1926.66 973.214" stroke="#F8F6F6" stroke-width="100"/>
<path d="M1942.21 518.956C2016.77 432.066 2058.23 338.402 2039.09 270.919C2011.19 173.884 1884.8 118.751 1682.25 116.105C1482.9 113.458 1232.91 161.093 978.136 250.189C723.363 339.725 494.107 460.136 332.63 589.369C168.762 720.806 93.8051 846.069 121.715 943.104C133.277 983.682 177.932 1025.14 222.587 1050.28C283.988 1080.28 370.508 1096.6 478.557 1097.92C484.139 1097.92 489.721 1097.92 495.303 1097.92C522.016 1097.92 591.391 1093.95 619.699 1092.18C790.346 1077.19 985.313 1033.08 1183.07 963.393C1312.25 918.404 1472.93 845.187 1583.77 786.525C1675.87 735.803 1758.41 681.111 1828.58 625.095C1873.23 589.369 1911.11 554.083 1942.21 519.68M1924.33 511.926C1996.49 428.565 2041.49 337.079 2023.94 276.212C1998.83 188.44 1874.03 136.394 1682.25 133.747C1676.67 133.747 1671.09 133.747 1665.51 133.747C1470.94 133.747 1229.32 180.5 983.32 266.949C729.742 355.604 502.479 475.133 342.199 603.483C186.704 728.305 112.146 850.039 137.264 937.811C147.631 974.861 191.488 1013.23 234.947 1036.61C294.355 1063.96 376.887 1079.39 478.956 1080.72C522.016 1081.16 594.612 1076.79 642.058 1072.82C800.744 1054.74 998.072 1010.15 1177.89 947.074C1291.52 907.378 1442.63 839.894 1541.91 789.613C1647.17 733.597 1741.26 673.171 1819.41 610.54C1861.27 577.019 1896.76 543.498 1926.66 511.3" stroke="#F8F6F6" stroke-width="100"/>
</svg>
