<svg width="2195" height="2195" viewBox="0 0 2195 2195" fill="none" xmlns="http://www.w3.org/2000/svg">
<g clip-path="url(#clip0_424_554)">
<path fill-rule="evenodd" clip-rule="evenodd" d="M1044.21 1950.14C543.68 1950.14 137.742 1544.2 137.742 1044.44C137.742 543.906 543.68 137.968 1044.21 137.968C1544.11 137.968 1949.91 543.906 1949.91 1044.44C1949.91 1544.34 1543.98 1950.14 1044.21 1950.14ZM947.577 1544.2C628.115 1544.2 368.825 1285.04 368.825 965.45C368.825 645.987 627.983 386.067 947.577 386.067C1267.81 386.067 1526.96 645.977 1526.96 965.45C1526.96 1284.91 1267.8 1544.2 947.577 1544.2ZM1008.64 274.332C596.618 274.332 262.674 608.276 262.674 1020.3C262.674 1432.33 596.618 1766.27 1008.64 1766.27C1420.67 1766.27 1754.62 1432.33 1754.62 1020.3C1754.62 608.276 1420.67 274.332 1008.64 274.332ZM768.664 730.296C698.705 770.794 669.885 850.928 703.526 909.961C737.809 968.884 822.123 983.99 892.083 943.602C962.042 903.104 990.862 822.97 957.22 763.937C922.937 705.015 838.623 689.908 768.664 730.296ZM859.193 1124.55C722.703 1124.55 611.714 1013.45 611.714 877.071C611.714 739.939 722.812 629.592 859.193 629.592C995.683 629.592 1106.67 739.939 1106.67 877.071C1106.67 1013.56 995.573 1124.55 859.193 1124.55ZM900.333 524.598C682.956 524.598 506.709 700.835 506.709 918.222C506.709 1135.6 682.945 1311.85 900.333 1311.85C1117.72 1311.85 1293.96 1135.61 1293.96 918.222C1293.96 700.846 1117.72 524.598 900.333 524.598ZM1097.14 0.0683594C490.961 0.0683594 0.0830078 490.946 0.0830078 1097.12C0.0830078 1703.3 490.961 2194.18 1097.14 2194.18C1703.32 2194.18 2194.19 1703.3 2194.19 1097.12C2194.19 490.946 1703.32 0.0683594 1097.14 0.0683594Z" fill="#F58DD7"/>
</g>
<defs>
<clipPath id="clip0_424_554">
<rect width="2194.11" height="2194.11" fill="white" transform="matrix(-1 0 0 1 2194.17 0.0527344)"/>
</clipPath>
</defs>
</svg>
