<svg width="2160" height="2160" viewBox="0 0 2160 2160" fill="none" xmlns="http://www.w3.org/2000/svg">
<g clip-path="url(#clip0_424_609)">
<path fill-rule="evenodd" clip-rule="evenodd" d="M1027.9 1919.75C535.145 1919.75 135.518 1520.13 135.518 1028.13C135.518 535.383 535.145 135.756 1027.9 135.756C1520.02 135.756 1919.52 535.383 1919.52 1028.13C1919.52 1520.26 1519.89 1919.75 1027.9 1919.75ZM932.764 1520.13C618.268 1520.13 363.01 1265 363.01 950.373C363.01 635.877 618.138 379.998 932.764 379.998C1248.02 379.998 1503.14 635.866 1503.14 950.373C1503.14 1264.87 1248.01 1520.13 932.764 1520.13ZM992.882 270C587.261 270 258.509 598.752 258.509 1004.37C258.509 1409.99 587.261 1738.75 992.882 1738.75C1398.5 1738.75 1727.25 1409.99 1727.25 1004.37C1727.25 598.752 1398.5 270 992.882 270ZM756.632 718.875C687.76 758.743 659.389 837.632 692.507 895.747C726.257 953.753 809.26 968.625 878.132 928.865C947.003 888.997 975.375 810.108 942.257 751.993C908.507 693.986 825.503 679.115 756.632 718.875ZM845.753 1107C711.385 1107 602.122 997.628 602.122 863.368C602.122 728.368 711.493 619.736 845.753 619.736C980.122 619.736 1089.39 728.368 1089.39 863.368C1089.39 997.736 980.014 1107 845.753 1107ZM886.253 516.375C672.257 516.375 498.749 689.872 498.749 903.879C498.749 1117.88 672.246 1291.38 886.253 1291.38C1100.26 1291.38 1273.76 1117.89 1273.76 903.879C1273.76 689.882 1100.26 516.375 886.253 516.375ZM1080 0C483.246 0 0 483.246 0 1080C0 1676.75 483.246 2160 1080 2160C1676.75 2160 2160 1676.75 2160 1080C2160 483.246 1676.75 0 1080 0Z" fill="#F8F6F6"/>
</g>
<defs>
<clipPath id="clip0_424_609">
<rect width="2160" height="2160" fill="white" transform="matrix(-1 0 0 1 2160 0)"/>
</clipPath>
</defs>
</svg>
