<svg width="2195" height="2195" viewBox="0 0 2195 2195" fill="none" xmlns="http://www.w3.org/2000/svg">
<g clip-path="url(#clip0_424_539)">
<path d="M1442.43 1527.91C1285.48 1438.39 1169.9 1296.43 1114.89 1125.48C1250.08 1248.68 1423.66 1315.61 1607.48 1315.61C1608.76 1315.61 1609.61 1315.61 1610.89 1315.61C1806.65 1314.76 1990.46 1237.59 2128.64 1098.62L2116.7 1086.68C1981.93 1222.67 1802.38 1297.7 1611.32 1298.56C1610.04 1298.56 1609.18 1298.56 1607.9 1298.56C1428.35 1298.56 1259.04 1232.91 1126.83 1112.69C1179.29 1124.2 1231.32 1129.74 1283.35 1129.74C1607.9 1129.74 1905.59 912.321 1992.59 584.062L1975.96 579.799C1877.44 951.541 1502.99 1177.49 1130.67 1096.49C1305.95 1041.07 1452.24 923.831 1544.78 763.112C1642.45 593.441 1668.04 395.633 1617.29 206.778L1600.65 211.041C1650.55 395.633 1625.39 588.752 1529.86 754.586C1439.87 911.042 1297 1025.72 1125.97 1079.86C1250.51 944.294 1318.75 769.933 1318.75 584.489C1318.75 388.812 1242.41 204.647 1103.8 66.0962L1091.86 78.0329C1227.05 213.173 1301.69 393.076 1301.69 584.489C1301.69 765.67 1234.73 936.194 1113.18 1068.78C1150.28 888.021 1119.15 703.003 1023.62 543.989C922.541 376.449 762.609 257.935 572.396 210.615L568.131 227.241C753.653 273.709 910.173 389.665 1008.69 553.368C1101.67 708.118 1132.37 888.447 1096.55 1064.51C973.719 694.476 578.367 483.027 200.074 590.457L204.765 606.657C574.529 501.358 960.498 708.118 1080.34 1069.2C789.477 809.58 341.241 823.222 66.584 1105.44L78.9521 1117.38C346.785 841.979 784.36 828.764 1068.83 1081.99C687.121 1002.27 305.416 1237.17 208.177 1618.72L224.81 1622.98C319.917 1250.81 692.239 1021.03 1064.99 1098.62C694.371 1219.69 480.702 1613.6 586.897 1992.59L603.53 1987.9C499.894 1617.86 708.445 1233.33 1070.11 1114.82C809.096 1404.71 820.611 1852.33 1101.66 2128.16L1113.61 2115.79C839.376 1846.79 827.861 1409.4 1082.47 1126.33C1044.09 1306.23 1073.52 1491.25 1167.34 1650.69C1266.71 1819.51 1425.79 1939.73 1615.15 1988.75L1619.42 1972.13C1434.32 1923.95 1278.66 1806.72 1181.84 1641.74C1090.15 1486.13 1061.15 1305.38 1098.68 1129.74C1154.98 1304.95 1273.11 1450.32 1433.9 1541.98C1546.06 1605.93 1670.17 1638.33 1795.56 1638.33C1860.81 1638.33 1926.49 1629.37 1990.89 1611.89L1986.2 1595.27C1801.95 1646.85 1608.76 1622.55 1442.43 1527.91Z" stroke="#F76E4A" stroke-width="101.689"/>
</g>
<defs>
<clipPath id="clip0_424_539">
<rect width="2194.11" height="2194.11" fill="white" transform="translate(0.555664 0.0527344)"/>
</clipPath>
</defs>
</svg>
