<svg width="2160" height="2160" viewBox="0 0 2160 2160" fill="none" xmlns="http://www.w3.org/2000/svg">
<path d="M1404.07 1485C1256.34 1400.73 1147.55 1267.1 1095.76 1106.19C1223.02 1222.16 1386.41 1285.16 1559.43 1285.16C1560.64 1285.16 1561.44 1285.16 1562.64 1285.16C1746.91 1284.35 1919.93 1211.72 2050 1080.9L2038.76 1069.67C1911.9 1197.68 1742.89 1268.3 1563.04 1269.11C1561.84 1269.11 1561.04 1269.11 1559.83 1269.11C1390.82 1269.11 1231.45 1207.31 1107 1094.15C1156.38 1104.98 1205.35 1110.2 1254.33 1110.2C1559.83 1110.2 1840.04 905.544 1921.94 596.557L1906.28 592.545C1813.55 942.462 1461.08 1155.14 1110.61 1078.9C1275.61 1026.73 1413.3 916.379 1500.42 765.096C1592.35 605.386 1616.44 419.191 1568.66 241.423L1553.01 245.436C1599.98 419.191 1576.29 600.971 1486.37 757.07C1401.66 904.341 1267.18 1012.29 1106.2 1063.25C1223.42 935.64 1287.65 771.516 1287.65 596.959C1287.65 412.77 1215.79 239.417 1085.32 109L1074.08 120.236C1201.34 247.442 1271.59 416.783 1271.59 596.959C1271.59 767.503 1208.57 928.016 1094.15 1052.81C1129.08 882.671 1099.77 708.515 1009.85 558.837C914.706 401.133 764.163 289.577 585.117 245.035L581.103 260.685C755.732 304.424 903.064 413.573 995.798 567.665C1083.31 713.33 1112.22 883.073 1078.5 1048.8C962.879 700.489 590.737 501.454 234.653 602.577L239.069 617.825C587.124 518.709 950.435 713.33 1063.24 1053.22C789.454 808.835 367.532 821.676 109 1087.32L120.642 1098.56C372.751 839.333 784.637 826.893 1052.4 1065.25C693.107 990.215 333.811 1211.32 242.281 1570.47L257.937 1574.48C347.46 1224.16 697.924 1007.87 1048.79 1080.9C699.931 1194.87 498.806 1565.65 598.766 1922.39L614.423 1917.98C516.871 1569.67 713.179 1207.71 1053.61 1096.15C807.921 1369.02 818.76 1790.37 1083.31 2050L1094.55 2038.36C836.423 1785.15 825.584 1373.44 1065.25 1106.99C1029.12 1276.33 1056.82 1450.48 1145.14 1600.56C1238.67 1759.47 1388.41 1872.63 1566.66 1918.78L1570.67 1903.13C1396.44 1857.79 1249.91 1747.43 1158.79 1592.14C1072.47 1445.67 1045.18 1275.53 1080.5 1110.2C1133.49 1275.12 1244.7 1411.96 1396.04 1498.24C1501.62 1558.43 1618.44 1588.93 1736.47 1588.93C1797.89 1588.93 1859.71 1580.5 1920.33 1564.05L1915.92 1548.4C1742.49 1596.95 1560.64 1574.08 1404.07 1485Z" fill="#F8F6F6" stroke="#F8F6F6" stroke-width="95.6158"/>
</svg>
