<svg width="2195" height="2195" viewBox="0 0 2195 2195" fill="none" xmlns="http://www.w3.org/2000/svg">
<g clip-path="url(#clip0_424_531)">
<path d="M546.458 305.423C546.458 438.62 438.823 546.255 305.626 546.255C172.429 546.255 64.7943 438.62 64.7943 305.423C64.7943 172.226 172.429 64.5917 305.626 64.5917C438.823 64.5917 546.458 172.226 546.458 305.423Z" stroke="#7CE55E" stroke-width="127.812"/>
<path d="M1326.56 305.424C1326.56 438.621 1218.93 546.255 1085.73 546.255C952.534 546.255 844.899 438.621 844.899 305.424C844.899 172.227 952.534 64.592 1085.73 64.592C1218.93 64.592 1326.56 172.227 1326.56 305.424Z" stroke="#7CE55E" stroke-width="127.812"/>
<path d="M2106.71 305.424C2106.71 438.621 1999.07 546.255 1865.88 546.255C1732.68 546.255 1625.05 438.621 1625.05 305.424C1625.05 172.227 1732.68 64.592 1865.88 64.592C1999.07 64.592 2106.71 172.227 2106.71 305.424Z" stroke="#7CE55E" stroke-width="127.812"/>
<path d="M1865.88 1649.22C1999.07 1649.22 2106.71 1756.85 2106.71 1890.05C2106.71 2023.25 1999.07 2130.88 1865.88 2130.88C1732.68 2130.88 1625.05 2023.25 1625.05 1890.05C1625.05 1756.85 1732.68 1649.22 1865.88 1649.22Z" stroke="#7CE55E" stroke-width="127.812"/>
<path d="M1865.88 856.902C1999.07 856.902 2106.71 964.537 2106.71 1097.73C2106.71 1230.93 1999.07 1338.57 1865.88 1338.57C1732.68 1338.57 1625.05 1230.93 1625.05 1097.73C1625.05 964.537 1732.68 856.902 1865.88 856.902Z" stroke="#7CE55E" stroke-width="127.812"/>
<path d="M1085.73 856.902C1218.93 856.902 1326.56 964.537 1326.56 1097.73C1326.56 1230.93 1218.93 1338.57 1085.73 1338.57C952.534 1338.57 844.899 1230.93 844.899 1097.73C844.899 964.537 952.534 856.902 1085.73 856.902Z" stroke="#7CE55E" stroke-width="127.812"/>
</g>
<defs>
<clipPath id="clip0_424_531">
<rect width="2194.11" height="2194.11" fill="white" transform="translate(0.888184 0.675293)"/>
</clipPath>
</defs>
</svg>
