<svg width="2160" height="2160" viewBox="0 0 2160 2160" fill="none" xmlns="http://www.w3.org/2000/svg">
<g clip-path="url(#clip0_424_623)">
<path d="M550 300C550 438.258 438.258 550 300 550C161.742 550 50 438.258 50 300C50 161.743 161.742 50 300 50C438.258 50 550 161.743 550 300Z" stroke="#1E1E1E" stroke-width="100"/>
<path d="M1318 300C1318 438.258 1206.26 550 1068 550C929.742 550 818 438.258 818 300C818 161.743 929.742 50 1068 50C1206.26 50 1318 161.743 1318 300Z" stroke="#1E1E1E" stroke-width="100"/>
<path d="M2086 300C2086 438.258 1974.26 550 1836 550C1697.74 550 1586 438.258 1586 300C1586 161.743 1697.74 50 1836 50C1974.26 50 2086 161.743 2086 300Z" stroke="#1E1E1E" stroke-width="100"/>
<path d="M1836 1610C1974.26 1610 2086 1721.74 2086 1860C2086 1998.26 1974.26 2110 1836 2110C1697.74 2110 1586 1998.26 1586 1860C1586 1721.74 1697.74 1610 1836 1610Z" stroke="#1E1E1E" stroke-width="100"/>
<path d="M1836 830C1974.26 830 2086 941.742 2086 1080C2086 1218.26 1974.26 1330 1836 1330C1697.74 1330 1586 1218.26 1586 1080C1586 941.742 1697.74 830 1836 830Z" stroke="#1E1E1E" stroke-width="100"/>
<path d="M1068 830C1206.26 830 1318 941.742 1318 1080C1318 1218.26 1206.26 1330 1068 1330C929.743 1330 818 1218.26 818 1080C818 941.742 929.743 830 1068 830Z" stroke="#1E1E1E" stroke-width="100"/>
</g>
<defs>
<clipPath id="clip0_424_623">
<rect width="2160" height="2160" fill="white"/>
</clipPath>
</defs>
</svg>
