<svg width="2195" height="2195" viewBox="0 0 2195 2195" fill="none" xmlns="http://www.w3.org/2000/svg">
<g clip-path="url(#clip0_424_558)">
<path d="M1827.94 1454.9C2010 1636.97 2115.59 1874.46 2129.08 2129.76C1874.11 2116.25 1636.27 2010.67 1454.23 1828.63C1290.67 1664.62 1188.94 1456.36 1160.1 1230.7H1034.01C1005.16 1456.43 903.398 1665.12 739.894 1828.62C557.828 2010.69 320.338 2116.27 65.0361 2129.76C78.5442 1874.8 184.126 1636.96 366.15 1454.93C530.162 1291.35 738.434 1189.63 964.096 1160.78V1034.7C738.369 1005.84 529.678 904.082 366.173 740.577C184.108 558.512 78.5233 321.021 65.0321 65.7198C319.989 79.2276 557.825 184.805 739.859 366.822C903.437 530.836 1005.17 739.112 1034.01 964.78H1160.1C1188.95 739.053 1290.71 530.362 1454.22 366.857C1636.28 184.792 1873.77 79.2075 2129.07 65.7159C2115.54 321.039 2009.61 558.888 1827.97 740.543C1663.96 904.121 1455.68 1005.85 1230.02 1034.7V1160.78C1455.74 1189.63 1664.43 1291.4 1827.94 1454.9Z" stroke="#F58DD7" stroke-width="127.112"/>
<path d="M1097.06 1274.68C999.336 1274.68 920.115 1195.46 920.115 1097.74C920.115 1000.01 999.336 920.791 1097.06 920.791C1194.78 920.791 1274 1000.01 1274 1097.74C1274 1195.46 1194.78 1274.68 1097.06 1274.68Z" fill="#F58DD7"/>
</g>
<defs>
<clipPath id="clip0_424_558">
<rect width="2194.11" height="2194.11" fill="white" transform="translate(0 0.683716)"/>
</clipPath>
</defs>
</svg>
