<svg width="2160" height="2160" viewBox="0 0 2160 2160" fill="none" xmlns="http://www.w3.org/2000/svg">
<path d="M1080 1080C1108.62 856.057 1209.65 517.197 1371.71 355.133C1565.35 161.499 1822.55 55 2096.58 55H2105V63.4189C2105 337.454 1998.08 595.072 1804.87 788.285C1642.38 950.349 1303.94 1051.38 1080 1080ZM1080 1080C1051.38 856.057 950.349 517.618 788.285 355.133C594.651 161.499 337.033 55 63.4189 55H55V63.4189C55 337.454 161.499 594.651 355.133 788.285C517.197 950.349 856.057 1051.38 1080 1080ZM1080 1080C856.057 1108.62 517.618 1209.65 355.133 1371.71C161.499 1565.35 55 1822.97 55 2096.58V2105H63.4189C337.454 2105 594.651 1998.5 788.285 1804.87C950.349 1642.8 1051.38 1303.94 1080 1080ZM1080 1080C1108.62 1303.94 1209.65 1642.38 1371.71 1804.87C1565.35 1998.5 1822.97 2105 2096.58 2105H2105V2096.58C2105 1822.55 1998.5 1565.35 1804.87 1371.71C1642.8 1209.65 1303.94 1108.62 1080 1080Z" stroke="#1E1E1E" stroke-width="110"/>
</svg>
