<svg width="2195" height="2195" viewBox="0 0 2195 2195" fill="none" xmlns="http://www.w3.org/2000/svg">
<path d="M1422.07 1756.21L1332.57 1666.71V1793.28V1890.03C1332.57 1952.51 1307.75 2012.43 1263.58 2056.61C1219.4 2100.79 1159.48 2125.61 1097 2125.61C1034.52 2125.61 974.603 2100.79 930.425 2056.61C886.246 2012.43 861.427 1952.51 861.427 1890.03V1793.28V1666.71L771.928 1756.21L703.811 1824.33C659.447 1867.28 599.987 1891.1 538.23 1890.65C476.35 1890.2 417.133 1865.41 373.376 1821.66C329.62 1777.9 304.837 1718.68 304.385 1656.8C303.934 1595.05 327.752 1535.59 370.703 1491.22L438.822 1423.11L528.32 1333.61H401.75H305C242.522 1333.61 182.603 1308.79 138.425 1264.61C94.2464 1220.43 69.4272 1160.51 69.4272 1098.03C69.4272 1035.56 94.2464 975.637 138.425 931.458L102.177 895.211L138.425 931.458C182.603 887.28 242.522 862.461 305 862.461H401.75H528.32L438.822 772.962L370.422 704.562L370.151 704.291L369.876 704.024C347.476 682.269 329.624 656.278 317.359 627.562C305.094 598.846 298.66 567.978 298.432 536.754C298.204 505.529 304.186 474.57 316.03 445.678C327.874 416.786 345.344 390.537 367.423 368.457C389.503 346.377 415.752 328.907 444.645 317.063C473.537 305.219 504.495 299.237 535.72 299.465C566.945 299.694 597.813 306.127 626.529 318.392C655.245 330.657 681.236 348.509 702.991 370.909L703.258 371.184L703.528 371.455L771.928 439.855L861.427 529.354V402.783V306.033C861.427 243.556 886.246 183.637 930.425 139.458L894.177 103.211L930.425 139.458C974.603 95.2798 1034.52 70.4606 1097 70.4606C1159.48 70.4606 1219.4 95.2798 1263.58 139.458C1307.75 183.637 1332.57 243.556 1332.57 306.033V402.783V529.354L1422.07 439.855L1490.47 371.455L1490.74 371.184L1491.01 370.909C1512.76 348.509 1538.76 330.657 1567.47 318.392C1596.19 306.127 1627.06 299.694 1658.28 299.465C1689.5 299.237 1720.46 305.219 1749.36 317.063C1778.25 328.907 1804.5 346.377 1826.58 368.457C1848.66 390.537 1866.13 416.786 1877.97 445.678C1889.81 474.57 1895.8 505.529 1895.57 536.753C1895.34 567.978 1888.91 598.846 1876.64 627.562C1864.38 656.278 1846.52 682.269 1824.12 704.024L1823.85 704.291L1823.58 704.562L1755.18 772.962L1665.68 862.461H1792.25H1889C1951.48 862.461 2011.4 887.28 2055.58 931.458C2099.75 975.637 2124.57 1035.56 2124.57 1098.03C2124.57 1160.51 2099.75 1220.43 2055.58 1264.61C2011.4 1308.79 1951.48 1333.61 1889 1333.61H1792.25H1665.68L1755.18 1423.11L1823.58 1491.51L1823.85 1491.78L1824.12 1492.04C1846.52 1513.8 1864.38 1539.79 1876.64 1568.5C1888.91 1597.22 1895.34 1628.09 1895.57 1659.31C1895.8 1690.54 1889.81 1721.5 1877.97 1750.39C1866.13 1779.28 1848.66 1805.53 1826.58 1827.61C1804.5 1849.69 1778.25 1867.16 1749.36 1879C1720.46 1890.85 1689.5 1896.83 1658.28 1896.6C1627.06 1896.37 1596.19 1889.94 1567.47 1877.67C1538.76 1865.41 1512.76 1847.56 1491.01 1825.16L1490.74 1824.88L1490.47 1824.61L1422.07 1756.21Z" stroke="#FDB335" stroke-width="104.854"/>
</svg>
