<svg width="2160" height="2160" viewBox="0 0 2160 2160" fill="none" xmlns="http://www.w3.org/2000/svg">
<g clip-path="url(#clip0_424_615)">
<path d="M1405.07 1738.18L1315.57 1648.68V1775.25V1872C1315.57 1934.48 1290.75 1994.4 1246.58 2038.58C1202.4 2082.75 1142.48 2107.57 1080 2107.57C1017.52 2107.57 957.603 2082.75 913.425 2038.58C869.246 1994.4 844.427 1934.48 844.427 1872V1775.25V1648.68L754.928 1738.18L686.811 1806.3C642.447 1849.25 582.987 1873.07 521.23 1872.62C459.35 1872.16 400.133 1847.38 356.376 1803.62C312.62 1759.87 287.837 1700.65 287.385 1638.77C286.934 1577.01 310.752 1517.55 353.703 1473.19L421.822 1405.07L511.32 1315.57H384.75H288C225.522 1315.57 165.603 1290.75 121.425 1246.58C77.2464 1202.4 52.4272 1142.48 52.4272 1080C52.4272 1017.52 77.2464 957.603 121.425 913.425L85.1771 877.177L121.425 913.425C165.603 869.246 225.522 844.427 288 844.427H384.75H511.32L421.822 754.928L353.422 686.528L353.151 686.258L352.876 685.991C330.476 664.236 312.624 638.245 300.359 609.529C288.094 580.813 281.66 549.945 281.432 518.72C281.204 487.495 287.186 456.537 299.03 427.645C310.874 398.752 328.344 372.503 350.423 350.423C372.503 328.344 398.752 310.874 427.645 299.03C456.537 287.186 487.495 281.204 518.72 281.432C549.945 281.66 580.813 288.094 609.529 300.359C638.245 312.624 664.236 330.476 685.991 352.876L686.258 353.151L686.528 353.422L754.928 421.822L844.427 511.32V384.75V288C844.427 225.522 869.246 165.603 913.425 121.425L877.177 85.1771L913.425 121.425C957.603 77.2464 1017.52 52.4272 1080 52.4272C1142.48 52.4272 1202.4 77.2464 1246.58 121.425C1290.75 165.603 1315.57 225.522 1315.57 288V384.75V511.32L1405.07 421.822L1473.47 353.422L1473.74 353.151L1474.01 352.876C1495.76 330.476 1521.76 312.624 1550.47 300.359C1579.19 288.094 1610.06 281.66 1641.28 281.432C1672.5 281.204 1703.46 287.186 1732.36 299.03C1761.25 310.874 1787.5 328.344 1809.58 350.423C1831.66 372.503 1849.13 398.752 1860.97 427.645C1872.81 456.537 1878.8 487.495 1878.57 518.72C1878.34 549.945 1871.91 580.813 1859.64 609.529C1847.38 638.245 1829.52 664.236 1807.12 685.991L1806.85 686.258L1806.58 686.528L1738.18 754.928L1648.68 844.427H1775.25H1872C1934.48 844.427 1994.4 869.246 2038.58 913.425C2082.75 957.603 2107.57 1017.52 2107.57 1080C2107.57 1142.48 2082.75 1202.4 2038.58 1246.58C1994.4 1290.75 1934.48 1315.57 1872 1315.57H1775.25H1648.68L1738.18 1405.07L1806.58 1473.47L1806.85 1473.74L1807.12 1474.01C1829.52 1495.76 1847.38 1521.76 1859.64 1550.47C1871.91 1579.19 1878.34 1610.06 1878.57 1641.28C1878.8 1672.5 1872.81 1703.46 1860.97 1732.36C1849.13 1761.25 1831.66 1787.5 1809.58 1809.58C1787.5 1831.66 1761.25 1849.13 1732.36 1860.97C1703.46 1872.81 1672.5 1878.8 1641.28 1878.57C1610.06 1878.34 1579.19 1871.91 1550.47 1859.64C1521.76 1847.38 1495.76 1829.52 1474.01 1807.12L1473.74 1806.85L1473.47 1806.58L1405.07 1738.18Z" stroke="#F8F6F6" stroke-width="104.854"/>
</g>
<defs>
<clipPath id="clip0_424_615">
<rect width="2160" height="2160" fill="white"/>
</clipPath>
</defs>
</svg>
