<svg width="2196" height="2195" viewBox="0 0 2196 2195" fill="none" xmlns="http://www.w3.org/2000/svg">
<g clip-path="url(#clip0_424_564)">
<mask id="path-1-outside-1_424_564" maskUnits="userSpaceOnUse" x="-9.07129" y="-9.16553" width="2214" height="2214" fill="black">
<rect fill="white" x="-9.07129" y="-9.16553" width="2214" height="2214"/>
<path d="M1.35761 1288.4C3.69566 1301.51 15.25 1311.06 28.7617 1311.06H28.8977L510.264 1308.62L139.928 1611.6C129.488 1620.14 126.824 1634.85 133.593 1646.42C140.39 1658 154.717 1663.02 167.359 1658.43L618.902 1493.94L376.071 1903.45C369.22 1914.99 371.83 1929.69 382.215 1938.29C392.6 1946.88 407.771 1946.84 418.101 1938.2L785.284 1631.5L699.238 2098.11C696.819 2111.26 704.377 2124.21 717.127 2128.78C729.823 2133.33 744.096 2128.21 750.811 2116.6L989.401 1704.67L1070.55 2172.14C1072.84 2185.32 1084.42 2194.95 1097.98 2194.95C1111.55 2194.95 1123.13 2185.32 1125.42 2172.14L1206.57 1704.67L1445.16 2116.6C1451.87 2128.23 1466.12 2133.38 1478.84 2128.78C1491.59 2124.21 1499.15 2111.26 1496.73 2098.11L1410.69 1631.5L1777.87 1938.2C1788.2 1946.84 1803.37 1946.88 1813.75 1938.29C1824.14 1929.69 1826.75 1914.99 1819.9 1903.45L1577.07 1493.94L2028.61 1658.43C2041.25 1663.02 2055.58 1658 2062.38 1646.42C2069.15 1634.85 2066.48 1620.14 2056.04 1611.6L1685.71 1308.62L2167.07 1311.06C2181.37 1310 2192.25 1301.55 2194.61 1288.4C2196.98 1275.24 2189.36 1262.31 2176.59 1257.82L1723.41 1097.89L2176.59 937.966C2189.36 933.466 2196.98 920.543 2194.61 907.379C2192.27 894.268 2180.72 884.72 2167.21 884.72H2167.07L1685.71 887.157L2056.04 584.181C2066.48 575.637 2069.15 560.933 2062.38 549.362C2055.58 537.779 2041.25 532.757 2028.61 537.35L1577.07 701.841L1819.9 292.334C1826.75 280.79 1824.14 266.086 1813.75 257.488C1803.37 248.904 1788.2 248.944 1777.87 257.582L1410.69 564.281L1496.73 97.6705C1499.15 84.5198 1491.59 71.5699 1478.84 67.0033C1466.06 62.3832 1451.85 67.5658 1445.16 79.1765L1206.57 491.108L1125.42 23.6407C1123.13 10.4632 1111.55 0.834473 1097.98 0.834473C1084.42 0.834473 1072.84 10.4632 1070.55 23.6407L989.401 491.108L750.811 79.1765C744.096 67.5792 729.878 62.4367 717.127 67.0033C704.377 71.5699 696.819 84.5198 699.238 97.6705L785.284 564.281L418.101 257.582C407.771 248.944 392.6 248.904 382.215 257.488C371.83 266.086 369.22 280.79 376.071 292.334L618.902 701.841L167.359 537.35C154.717 532.757 140.39 537.779 133.593 549.362C126.824 560.933 129.488 575.637 139.928 584.181L510.264 887.157L28.8977 884.72H28.7617C15.25 884.72 3.69566 894.268 1.35761 907.379C-1.00762 920.543 6.60463 933.466 19.3823 937.966L472.556 1097.89L19.3823 1257.82C6.60463 1262.31 -1.00762 1275.24 1.35761 1288.4ZM564.501 1123.71C575.566 1119.8 582.961 1109.47 582.961 1097.89C582.961 1086.31 575.566 1075.98 564.501 1072.07L191.365 940.389L587.719 942.398C600.361 942.867 609.985 935.234 614.008 924.346C618.032 913.472 614.688 901.272 605.635 893.866L300.71 644.404L672.487 779.849C683.497 783.866 695.922 780.625 703.452 771.747C711.01 762.881 712.098 750.293 706.171 740.289L506.24 403.111L808.556 655.64C817.527 663.153 830.332 664.277 840.473 658.479C850.641 652.68 856.051 641.217 853.957 629.82L783.109 245.623L979.56 584.797C985.378 594.854 996.959 600.278 1008.57 598.216C1020.15 596.207 1029.18 587.248 1031.16 575.825L1097.98 190.944L1164.81 575.825C1166.79 587.248 1175.82 596.207 1187.4 598.216C1199.09 600.278 1210.59 594.854 1216.41 584.797L1412.86 245.623L1342.01 629.82C1339.92 641.217 1345.33 652.68 1355.5 658.479C1365.64 664.277 1378.44 663.153 1387.41 655.64L1689.73 403.111L1489.8 740.289C1483.87 750.293 1484.96 762.881 1492.52 771.747C1500.07 780.639 1512.5 783.893 1523.48 779.849L1895.26 644.404L1590.33 893.866C1581.28 901.272 1577.94 913.472 1581.96 924.346C1585.96 935.193 1596.42 942.398 1608.11 942.398H1608.25L2004.6 940.389L1631.47 1072.07C1620.4 1075.98 1613.01 1086.31 1613.01 1097.89C1613.01 1109.47 1620.4 1119.8 1631.47 1123.71L2004.6 1255.39L1608.25 1253.38H1608.11C1596.42 1253.38 1585.96 1260.59 1581.96 1271.43C1577.94 1282.31 1581.28 1294.51 1590.33 1301.91L1895.26 1551.38L1523.48 1415.93C1512.47 1411.89 1500.05 1415.17 1492.52 1424.03C1484.96 1432.9 1483.87 1445.49 1489.8 1455.49L1689.73 1792.67L1387.41 1540.14C1378.44 1532.68 1365.64 1531.54 1355.5 1537.3C1345.33 1543.1 1339.92 1554.56 1342.01 1565.96L1412.86 1950.16L1216.41 1610.98C1210.59 1600.93 1199.09 1595.58 1187.4 1597.57C1175.82 1599.57 1166.79 1608.53 1164.81 1619.96L1097.98 2004.84L1031.16 1619.96C1029.18 1608.53 1020.15 1599.57 1008.57 1597.57C1006.94 1597.28 1005.33 1597.15 1003.73 1597.15C993.86 1597.15 984.562 1602.33 979.56 1610.98L783.109 1950.16L853.957 1565.96C856.051 1554.56 850.641 1543.1 840.473 1537.3C830.332 1531.54 817.527 1532.68 808.556 1540.14L506.24 1792.67L706.171 1455.49C712.098 1445.49 711.01 1432.9 703.452 1424.03C695.922 1415.16 683.524 1411.91 672.487 1415.93L300.71 1551.38L605.635 1301.91C614.688 1294.51 618.032 1282.31 614.008 1271.43C609.985 1260.53 600.361 1252.38 587.719 1253.38L191.365 1255.39L564.501 1123.71Z"/>
</mask>
<path d="M1.35761 1288.4C3.69566 1301.51 15.25 1311.06 28.7617 1311.06H28.8977L510.264 1308.62L139.928 1611.6C129.488 1620.14 126.824 1634.85 133.593 1646.42C140.39 1658 154.717 1663.02 167.359 1658.43L618.902 1493.94L376.071 1903.45C369.22 1914.99 371.83 1929.69 382.215 1938.29C392.6 1946.88 407.771 1946.84 418.101 1938.2L785.284 1631.5L699.238 2098.11C696.819 2111.26 704.377 2124.21 717.127 2128.78C729.823 2133.33 744.096 2128.21 750.811 2116.6L989.401 1704.67L1070.55 2172.14C1072.84 2185.32 1084.42 2194.95 1097.98 2194.95C1111.55 2194.95 1123.13 2185.32 1125.42 2172.14L1206.57 1704.67L1445.16 2116.6C1451.87 2128.23 1466.12 2133.38 1478.84 2128.78C1491.59 2124.21 1499.15 2111.26 1496.73 2098.11L1410.69 1631.5L1777.87 1938.2C1788.2 1946.84 1803.37 1946.88 1813.75 1938.29C1824.14 1929.69 1826.75 1914.99 1819.9 1903.45L1577.07 1493.94L2028.61 1658.43C2041.25 1663.02 2055.58 1658 2062.38 1646.42C2069.15 1634.85 2066.48 1620.14 2056.04 1611.6L1685.71 1308.62L2167.07 1311.06C2181.37 1310 2192.25 1301.55 2194.61 1288.4C2196.98 1275.24 2189.36 1262.31 2176.59 1257.82L1723.41 1097.89L2176.59 937.966C2189.36 933.466 2196.98 920.543 2194.61 907.379C2192.27 894.268 2180.72 884.72 2167.21 884.72H2167.07L1685.71 887.157L2056.04 584.181C2066.48 575.637 2069.15 560.933 2062.38 549.362C2055.58 537.779 2041.25 532.757 2028.61 537.35L1577.07 701.841L1819.9 292.334C1826.75 280.79 1824.14 266.086 1813.75 257.488C1803.37 248.904 1788.2 248.944 1777.87 257.582L1410.69 564.281L1496.73 97.6705C1499.15 84.5198 1491.59 71.5699 1478.84 67.0033C1466.06 62.3832 1451.85 67.5658 1445.16 79.1765L1206.57 491.108L1125.42 23.6407C1123.13 10.4632 1111.55 0.834473 1097.98 0.834473C1084.42 0.834473 1072.84 10.4632 1070.55 23.6407L989.401 491.108L750.811 79.1765C744.096 67.5792 729.878 62.4367 717.127 67.0033C704.377 71.5699 696.819 84.5198 699.238 97.6705L785.284 564.281L418.101 257.582C407.771 248.944 392.6 248.904 382.215 257.488C371.83 266.086 369.22 280.79 376.071 292.334L618.902 701.841L167.359 537.35C154.717 532.757 140.39 537.779 133.593 549.362C126.824 560.933 129.488 575.637 139.928 584.181L510.264 887.157L28.8977 884.72H28.7617C15.25 884.72 3.69566 894.268 1.35761 907.379C-1.00762 920.543 6.60463 933.466 19.3823 937.966L472.556 1097.89L19.3823 1257.82C6.60463 1262.31 -1.00762 1275.24 1.35761 1288.4ZM564.501 1123.71C575.566 1119.8 582.961 1109.47 582.961 1097.89C582.961 1086.31 575.566 1075.98 564.501 1072.07L191.365 940.389L587.719 942.398C600.361 942.867 609.985 935.234 614.008 924.346C618.032 913.472 614.688 901.272 605.635 893.866L300.71 644.404L672.487 779.849C683.497 783.866 695.922 780.625 703.452 771.747C711.01 762.881 712.098 750.293 706.171 740.289L506.24 403.111L808.556 655.64C817.527 663.153 830.332 664.277 840.473 658.479C850.641 652.68 856.051 641.217 853.957 629.82L783.109 245.623L979.56 584.797C985.378 594.854 996.959 600.278 1008.57 598.216C1020.15 596.207 1029.18 587.248 1031.16 575.825L1097.98 190.944L1164.81 575.825C1166.79 587.248 1175.82 596.207 1187.4 598.216C1199.09 600.278 1210.59 594.854 1216.41 584.797L1412.86 245.623L1342.01 629.82C1339.92 641.217 1345.33 652.68 1355.5 658.479C1365.64 664.277 1378.44 663.153 1387.41 655.64L1689.73 403.111L1489.8 740.289C1483.87 750.293 1484.96 762.881 1492.52 771.747C1500.07 780.639 1512.5 783.893 1523.48 779.849L1895.26 644.404L1590.33 893.866C1581.28 901.272 1577.94 913.472 1581.96 924.346C1585.96 935.193 1596.42 942.398 1608.11 942.398H1608.25L2004.6 940.389L1631.47 1072.07C1620.4 1075.98 1613.01 1086.31 1613.01 1097.89C1613.01 1109.47 1620.4 1119.8 1631.47 1123.71L2004.6 1255.39L1608.25 1253.38H1608.11C1596.42 1253.38 1585.96 1260.59 1581.96 1271.43C1577.94 1282.31 1581.28 1294.51 1590.33 1301.91L1895.26 1551.38L1523.48 1415.93C1512.47 1411.89 1500.05 1415.17 1492.52 1424.03C1484.96 1432.9 1483.87 1445.49 1489.8 1455.49L1689.73 1792.67L1387.41 1540.14C1378.44 1532.68 1365.64 1531.54 1355.5 1537.3C1345.33 1543.1 1339.92 1554.56 1342.01 1565.96L1412.86 1950.16L1216.41 1610.98C1210.59 1600.93 1199.09 1595.58 1187.4 1597.57C1175.82 1599.57 1166.79 1608.53 1164.81 1619.96L1097.98 2004.84L1031.16 1619.96C1029.18 1608.53 1020.15 1599.57 1008.57 1597.57C1006.94 1597.28 1005.33 1597.15 1003.73 1597.15C993.86 1597.15 984.562 1602.33 979.56 1610.98L783.109 1950.16L853.957 1565.96C856.051 1554.56 850.641 1543.1 840.473 1537.3C830.332 1531.54 817.527 1532.68 808.556 1540.14L506.24 1792.67L706.171 1455.49C712.098 1445.49 711.01 1432.9 703.452 1424.03C695.922 1415.16 683.524 1411.91 672.487 1415.93L300.71 1551.38L605.635 1301.91C614.688 1294.51 618.032 1282.31 614.008 1271.43C609.985 1260.53 600.361 1252.38 587.719 1253.38L191.365 1255.39L564.501 1123.71Z" fill="#FDB335"/>
<path d="M1.35761 1288.4C3.69566 1301.51 15.25 1311.06 28.7617 1311.06H28.8977L510.264 1308.62L139.928 1611.6C129.488 1620.14 126.824 1634.85 133.593 1646.42C140.39 1658 154.717 1663.02 167.359 1658.43L618.902 1493.94L376.071 1903.45C369.22 1914.99 371.83 1929.69 382.215 1938.29C392.6 1946.88 407.771 1946.84 418.101 1938.2L785.284 1631.5L699.238 2098.11C696.819 2111.26 704.377 2124.21 717.127 2128.78C729.823 2133.33 744.096 2128.21 750.811 2116.6L989.401 1704.67L1070.55 2172.14C1072.84 2185.32 1084.42 2194.95 1097.98 2194.95C1111.55 2194.95 1123.13 2185.32 1125.42 2172.14L1206.57 1704.67L1445.16 2116.6C1451.87 2128.23 1466.12 2133.38 1478.84 2128.78C1491.59 2124.21 1499.15 2111.26 1496.73 2098.11L1410.69 1631.5L1777.87 1938.2C1788.2 1946.84 1803.37 1946.88 1813.75 1938.29C1824.14 1929.69 1826.75 1914.99 1819.9 1903.45L1577.07 1493.94L2028.61 1658.43C2041.25 1663.02 2055.58 1658 2062.38 1646.42C2069.15 1634.85 2066.48 1620.14 2056.04 1611.6L1685.71 1308.62L2167.07 1311.06C2181.37 1310 2192.25 1301.55 2194.61 1288.4C2196.98 1275.24 2189.36 1262.31 2176.59 1257.82L1723.41 1097.89L2176.59 937.966C2189.36 933.466 2196.98 920.543 2194.61 907.379C2192.27 894.268 2180.72 884.72 2167.21 884.72H2167.07L1685.71 887.157L2056.04 584.181C2066.48 575.637 2069.15 560.933 2062.38 549.362C2055.58 537.779 2041.25 532.757 2028.61 537.35L1577.07 701.841L1819.9 292.334C1826.75 280.79 1824.14 266.086 1813.75 257.488C1803.37 248.904 1788.2 248.944 1777.87 257.582L1410.69 564.281L1496.73 97.6705C1499.15 84.5198 1491.59 71.5699 1478.84 67.0033C1466.06 62.3832 1451.85 67.5658 1445.16 79.1765L1206.57 491.108L1125.42 23.6407C1123.13 10.4632 1111.55 0.834473 1097.98 0.834473C1084.42 0.834473 1072.84 10.4632 1070.55 23.6407L989.401 491.108L750.811 79.1765C744.096 67.5792 729.878 62.4367 717.127 67.0033C704.377 71.5699 696.819 84.5198 699.238 97.6705L785.284 564.281L418.101 257.582C407.771 248.944 392.6 248.904 382.215 257.488C371.83 266.086 369.22 280.79 376.071 292.334L618.902 701.841L167.359 537.35C154.717 532.757 140.39 537.779 133.593 549.362C126.824 560.933 129.488 575.637 139.928 584.181L510.264 887.157L28.8977 884.72H28.7617C15.25 884.72 3.69566 894.268 1.35761 907.379C-1.00762 920.543 6.60463 933.466 19.3823 937.966L472.556 1097.89L19.3823 1257.82C6.60463 1262.31 -1.00762 1275.24 1.35761 1288.4ZM564.501 1123.71C575.566 1119.8 582.961 1109.47 582.961 1097.89C582.961 1086.31 575.566 1075.98 564.501 1072.07L191.365 940.389L587.719 942.398C600.361 942.867 609.985 935.234 614.008 924.346C618.032 913.472 614.688 901.272 605.635 893.866L300.71 644.404L672.487 779.849C683.497 783.866 695.922 780.625 703.452 771.747C711.01 762.881 712.098 750.293 706.171 740.289L506.24 403.111L808.556 655.64C817.527 663.153 830.332 664.277 840.473 658.479C850.641 652.68 856.051 641.217 853.957 629.82L783.109 245.623L979.56 584.797C985.378 594.854 996.959 600.278 1008.57 598.216C1020.15 596.207 1029.18 587.248 1031.16 575.825L1097.98 190.944L1164.81 575.825C1166.79 587.248 1175.82 596.207 1187.4 598.216C1199.09 600.278 1210.59 594.854 1216.41 584.797L1412.86 245.623L1342.01 629.82C1339.92 641.217 1345.33 652.68 1355.5 658.479C1365.64 664.277 1378.44 663.153 1387.41 655.64L1689.73 403.111L1489.8 740.289C1483.87 750.293 1484.96 762.881 1492.52 771.747C1500.07 780.639 1512.5 783.893 1523.48 779.849L1895.26 644.404L1590.33 893.866C1581.28 901.272 1577.94 913.472 1581.96 924.346C1585.96 935.193 1596.42 942.398 1608.11 942.398H1608.25L2004.6 940.389L1631.47 1072.07C1620.4 1075.98 1613.01 1086.31 1613.01 1097.89C1613.01 1109.47 1620.4 1119.8 1631.47 1123.71L2004.6 1255.39L1608.25 1253.38H1608.11C1596.42 1253.38 1585.96 1260.59 1581.96 1271.43C1577.94 1282.31 1581.28 1294.51 1590.33 1301.91L1895.26 1551.38L1523.48 1415.93C1512.47 1411.89 1500.05 1415.17 1492.52 1424.03C1484.96 1432.9 1483.87 1445.49 1489.8 1455.49L1689.73 1792.67L1387.41 1540.14C1378.44 1532.68 1365.64 1531.54 1355.5 1537.3C1345.33 1543.1 1339.92 1554.56 1342.01 1565.96L1412.86 1950.16L1216.41 1610.98C1210.59 1600.93 1199.09 1595.58 1187.4 1597.57C1175.82 1599.57 1166.79 1608.53 1164.81 1619.96L1097.98 2004.84L1031.16 1619.96C1029.18 1608.53 1020.15 1599.57 1008.57 1597.57C1006.94 1597.28 1005.33 1597.15 1003.73 1597.15C993.86 1597.15 984.562 1602.33 979.56 1610.98L783.109 1950.16L853.957 1565.96C856.051 1554.56 850.641 1543.1 840.473 1537.3C830.332 1531.54 817.527 1532.68 808.556 1540.14L506.24 1792.67L706.171 1455.49C712.098 1445.49 711.01 1432.9 703.452 1424.03C695.922 1415.16 683.524 1411.91 672.487 1415.93L300.71 1551.38L605.635 1301.91C614.688 1294.51 618.032 1282.31 614.008 1271.43C609.985 1260.53 600.361 1252.38 587.719 1253.38L191.365 1255.39L564.501 1123.71Z" stroke="#FDB335" stroke-width="18.3041" mask="url(#path-1-outside-1_424_564)"/>
</g>
<defs>
<clipPath id="clip0_424_564">
<rect width="2194.11" height="2194.11" fill="white" transform="matrix(-1 0 0 1 2195.02 0.839722)"/>
</clipPath>
</defs>
</svg>
