<svg width="2160" height="2160" viewBox="0 0 2160 2160" fill="none" xmlns="http://www.w3.org/2000/svg">
<g clip-path="url(#clip0_424_611)">
<mask id="path-1-outside-1_424_611" maskUnits="userSpaceOnUse" x="-10" y="-9" width="2180" height="2178" fill="black">
<rect fill="white" x="-10" y="-9" width="2180" height="2178"/>
<path d="M0.422232 1267.55C2.72393 1280.46 14.0986 1289.86 27.4003 1289.86H27.5341L501.417 1287.46L136.838 1585.72C126.561 1594.13 123.938 1608.61 130.602 1620C137.293 1631.4 151.398 1636.35 163.843 1631.83L608.366 1469.89L369.31 1873.03C362.565 1884.4 365.135 1898.87 375.359 1907.34C385.582 1915.79 400.517 1915.75 410.687 1907.24L772.161 1605.31L687.453 2064.67C685.071 2077.62 692.511 2090.36 705.064 2094.86C717.562 2099.34 731.614 2094.31 738.224 2082.88L973.105 1677.35L1053 2137.55C1055.24 2150.52 1066.64 2160 1080 2160C1093.36 2160 1104.76 2150.52 1107.01 2137.55L1186.9 1677.35L1421.78 2082.88C1428.39 2094.32 1442.41 2099.4 1454.94 2094.86C1467.49 2090.36 1474.93 2077.62 1472.55 2064.67L1387.84 1605.31L1749.31 1907.24C1759.48 1915.75 1774.42 1915.79 1784.64 1907.34C1794.87 1898.87 1797.43 1884.4 1790.69 1873.03L1551.63 1469.89L1996.16 1631.83C2008.6 1636.35 2022.71 1631.4 2029.4 1620C2036.06 1608.61 2033.44 1594.13 2023.16 1585.72L1658.58 1287.46L2132.47 1289.86C2146.54 1288.81 2157.25 1280.5 2159.58 1267.55C2161.91 1254.59 2154.41 1241.87 2141.83 1237.44L1695.71 1080L2141.83 922.562C2154.41 918.132 2161.91 905.41 2159.58 892.45C2157.28 879.543 2145.9 870.144 2132.6 870.144H2132.47L1658.58 872.543L2023.16 574.277C2033.44 565.866 2036.06 551.391 2029.4 540C2022.71 528.596 2008.6 523.652 1996.16 528.174L1551.63 690.108L1790.69 286.967C1797.43 275.603 1794.87 261.127 1784.64 252.664C1774.42 244.213 1759.48 244.252 1749.31 252.756L1387.84 554.687L1472.55 95.3306C1474.93 82.3843 1467.49 69.6357 1454.94 65.1401C1442.36 60.5918 1428.36 65.6938 1421.78 77.124L1186.9 482.651L1107.01 22.4517C1104.76 9.479 1093.36 0 1080 0C1066.64 0 1055.24 9.479 1053 22.4517L973.105 482.651L738.224 77.124C731.614 65.707 717.616 60.6445 705.064 65.1401C692.511 69.6357 685.071 82.3843 687.453 95.3306L772.161 554.687L410.687 252.756C400.517 244.252 385.582 244.213 375.359 252.664C365.135 261.127 362.565 275.603 369.31 286.967L608.366 690.108L163.843 528.174C151.398 523.652 137.293 528.596 130.602 540C123.938 551.391 126.561 565.866 136.838 574.277L501.417 872.543L27.5341 870.144H27.4003C14.0986 870.144 2.72393 879.543 0.422232 892.45C-1.90623 905.41 5.58768 918.132 18.1667 922.562L464.295 1080L18.1667 1237.44C5.58767 1241.87 -1.90623 1254.59 0.422232 1267.55ZM554.811 1105.42C565.704 1101.57 572.984 1091.4 572.984 1080C572.984 1068.6 565.704 1058.43 554.811 1054.58L187.476 924.948L577.667 926.925C590.113 927.387 599.587 919.872 603.548 909.154C607.509 898.449 604.217 886.438 595.305 879.148L295.12 633.564L661.117 766.903C671.957 770.858 684.188 767.667 691.601 758.927C699.042 750.199 700.112 737.807 694.278 727.958L497.456 396.022L795.071 644.625C803.903 652.021 816.509 653.128 826.492 647.42C836.502 641.711 841.828 630.426 839.767 619.207L770.02 240.983L963.416 574.884C969.144 584.785 980.545 590.124 991.973 588.094C1003.37 586.116 1012.26 577.296 1014.21 566.051L1080 187.154L1145.79 566.051C1147.74 577.296 1156.63 586.116 1168.03 588.094C1179.54 590.124 1190.86 584.785 1196.58 574.884L1389.98 240.983L1320.23 619.207C1318.17 630.426 1323.5 641.711 1333.51 647.42C1343.49 653.128 1356.1 652.021 1364.93 644.625L1662.54 396.022L1465.72 727.958C1459.89 737.807 1460.96 750.199 1468.4 758.927C1475.84 767.681 1488.07 770.884 1498.88 766.903L1864.88 633.564L1564.7 879.148C1555.78 886.438 1552.49 898.449 1556.45 909.154C1560.39 919.833 1570.69 926.925 1582.2 926.925H1582.33L1972.52 924.948L1605.19 1054.58C1594.3 1058.43 1587.02 1068.6 1587.02 1080C1587.02 1091.4 1594.3 1101.57 1605.19 1105.42L1972.52 1235.05L1582.33 1233.07H1582.2C1570.69 1233.07 1560.39 1240.17 1556.45 1250.85C1552.49 1261.55 1555.78 1273.56 1564.7 1280.85L1864.88 1526.44L1498.88 1393.1C1488.04 1389.12 1475.81 1392.35 1468.4 1401.07C1460.96 1409.8 1459.89 1422.19 1465.72 1432.04L1662.54 1763.98L1364.93 1515.38C1356.1 1508.03 1343.49 1506.91 1333.51 1512.58C1323.5 1518.29 1318.17 1529.57 1320.23 1540.79L1389.98 1919.02L1196.58 1585.12C1190.86 1575.22 1179.54 1569.96 1168.03 1571.91C1156.63 1573.88 1147.74 1582.7 1145.79 1593.95L1080 1972.85L1014.21 1593.95C1012.26 1582.7 1003.37 1573.88 991.973 1571.91C990.368 1571.63 988.789 1571.5 987.209 1571.5C977.494 1571.5 968.341 1576.6 963.416 1585.12L770.02 1919.02L839.767 1540.79C841.828 1529.57 836.502 1518.29 826.492 1512.58C816.509 1506.91 803.903 1508.03 795.071 1515.38L497.456 1763.98L694.278 1432.04C700.112 1422.19 699.042 1409.8 691.601 1401.07C684.188 1392.33 671.984 1389.14 661.117 1393.1L295.12 1526.44L595.305 1280.85C604.217 1273.56 607.509 1261.55 603.548 1250.85C599.587 1240.11 590.113 1232.09 577.667 1233.07L187.476 1235.05L554.811 1105.42Z"/>
</mask>
<path d="M0.422232 1267.55C2.72393 1280.46 14.0986 1289.86 27.4003 1289.86H27.5341L501.417 1287.46L136.838 1585.72C126.561 1594.13 123.938 1608.61 130.602 1620C137.293 1631.4 151.398 1636.35 163.843 1631.83L608.366 1469.89L369.31 1873.03C362.565 1884.4 365.135 1898.87 375.359 1907.34C385.582 1915.79 400.517 1915.75 410.687 1907.24L772.161 1605.31L687.453 2064.67C685.071 2077.62 692.511 2090.36 705.064 2094.86C717.562 2099.34 731.614 2094.31 738.224 2082.88L973.105 1677.35L1053 2137.55C1055.24 2150.52 1066.64 2160 1080 2160C1093.36 2160 1104.76 2150.52 1107.01 2137.55L1186.9 1677.35L1421.78 2082.88C1428.39 2094.32 1442.41 2099.4 1454.94 2094.86C1467.49 2090.36 1474.93 2077.62 1472.55 2064.67L1387.84 1605.31L1749.31 1907.24C1759.48 1915.75 1774.42 1915.79 1784.64 1907.34C1794.87 1898.87 1797.43 1884.4 1790.69 1873.03L1551.63 1469.89L1996.16 1631.83C2008.6 1636.35 2022.71 1631.4 2029.4 1620C2036.06 1608.61 2033.44 1594.13 2023.16 1585.72L1658.58 1287.46L2132.47 1289.86C2146.54 1288.81 2157.25 1280.5 2159.58 1267.55C2161.91 1254.59 2154.41 1241.87 2141.83 1237.44L1695.71 1080L2141.83 922.562C2154.41 918.132 2161.91 905.41 2159.58 892.45C2157.28 879.543 2145.9 870.144 2132.6 870.144H2132.47L1658.58 872.543L2023.16 574.277C2033.44 565.866 2036.06 551.391 2029.4 540C2022.71 528.596 2008.6 523.652 1996.16 528.174L1551.63 690.108L1790.69 286.967C1797.43 275.603 1794.87 261.127 1784.64 252.664C1774.42 244.213 1759.48 244.252 1749.31 252.756L1387.84 554.687L1472.55 95.3306C1474.93 82.3843 1467.49 69.6357 1454.94 65.1401C1442.36 60.5918 1428.36 65.6938 1421.78 77.124L1186.9 482.651L1107.01 22.4517C1104.76 9.479 1093.36 0 1080 0C1066.64 0 1055.24 9.479 1053 22.4517L973.105 482.651L738.224 77.124C731.614 65.707 717.616 60.6445 705.064 65.1401C692.511 69.6357 685.071 82.3843 687.453 95.3306L772.161 554.687L410.687 252.756C400.517 244.252 385.582 244.213 375.359 252.664C365.135 261.127 362.565 275.603 369.31 286.967L608.366 690.108L163.843 528.174C151.398 523.652 137.293 528.596 130.602 540C123.938 551.391 126.561 565.866 136.838 574.277L501.417 872.543L27.5341 870.144H27.4003C14.0986 870.144 2.72393 879.543 0.422232 892.45C-1.90623 905.41 5.58768 918.132 18.1667 922.562L464.295 1080L18.1667 1237.44C5.58767 1241.87 -1.90623 1254.59 0.422232 1267.55ZM554.811 1105.42C565.704 1101.57 572.984 1091.4 572.984 1080C572.984 1068.6 565.704 1058.43 554.811 1054.58L187.476 924.948L577.667 926.925C590.113 927.387 599.587 919.872 603.548 909.154C607.509 898.449 604.217 886.438 595.305 879.148L295.12 633.564L661.117 766.903C671.957 770.858 684.188 767.667 691.601 758.927C699.042 750.199 700.112 737.807 694.278 727.958L497.456 396.022L795.071 644.625C803.903 652.021 816.509 653.128 826.492 647.42C836.502 641.711 841.828 630.426 839.767 619.207L770.02 240.983L963.416 574.884C969.144 584.785 980.545 590.124 991.973 588.094C1003.37 586.116 1012.26 577.296 1014.21 566.051L1080 187.154L1145.79 566.051C1147.74 577.296 1156.63 586.116 1168.03 588.094C1179.54 590.124 1190.86 584.785 1196.58 574.884L1389.98 240.983L1320.23 619.207C1318.17 630.426 1323.5 641.711 1333.51 647.42C1343.49 653.128 1356.1 652.021 1364.93 644.625L1662.54 396.022L1465.72 727.958C1459.89 737.807 1460.96 750.199 1468.4 758.927C1475.84 767.681 1488.07 770.884 1498.88 766.903L1864.88 633.564L1564.7 879.148C1555.78 886.438 1552.49 898.449 1556.45 909.154C1560.39 919.833 1570.69 926.925 1582.2 926.925H1582.33L1972.52 924.948L1605.19 1054.58C1594.3 1058.43 1587.02 1068.6 1587.02 1080C1587.02 1091.4 1594.3 1101.57 1605.19 1105.42L1972.52 1235.05L1582.33 1233.07H1582.2C1570.69 1233.07 1560.39 1240.17 1556.45 1250.85C1552.49 1261.55 1555.78 1273.56 1564.7 1280.85L1864.88 1526.44L1498.88 1393.1C1488.04 1389.12 1475.81 1392.35 1468.4 1401.07C1460.96 1409.8 1459.89 1422.19 1465.72 1432.04L1662.54 1763.98L1364.93 1515.38C1356.1 1508.03 1343.49 1506.91 1333.51 1512.58C1323.5 1518.29 1318.17 1529.57 1320.23 1540.79L1389.98 1919.02L1196.58 1585.12C1190.86 1575.22 1179.54 1569.96 1168.03 1571.91C1156.63 1573.88 1147.74 1582.7 1145.79 1593.95L1080 1972.85L1014.21 1593.95C1012.26 1582.7 1003.37 1573.88 991.973 1571.91C990.368 1571.63 988.789 1571.5 987.209 1571.5C977.494 1571.5 968.341 1576.6 963.416 1585.12L770.02 1919.02L839.767 1540.79C841.828 1529.57 836.502 1518.29 826.492 1512.58C816.509 1506.91 803.903 1508.03 795.071 1515.38L497.456 1763.98L694.278 1432.04C700.112 1422.19 699.042 1409.8 691.601 1401.07C684.188 1392.33 671.984 1389.14 661.117 1393.1L295.12 1526.44L595.305 1280.85C604.217 1273.56 607.509 1261.55 603.548 1250.85C599.587 1240.11 590.113 1232.09 577.667 1233.07L187.476 1235.05L554.811 1105.42Z" fill="#F8F6F6"/>
<path d="M0.422232 1267.55C2.72393 1280.46 14.0986 1289.86 27.4003 1289.86H27.5341L501.417 1287.46L136.838 1585.72C126.561 1594.13 123.938 1608.61 130.602 1620C137.293 1631.4 151.398 1636.35 163.843 1631.83L608.366 1469.89L369.31 1873.03C362.565 1884.4 365.135 1898.87 375.359 1907.34C385.582 1915.79 400.517 1915.75 410.687 1907.24L772.161 1605.31L687.453 2064.67C685.071 2077.62 692.511 2090.36 705.064 2094.86C717.562 2099.34 731.614 2094.31 738.224 2082.88L973.105 1677.35L1053 2137.55C1055.24 2150.52 1066.64 2160 1080 2160C1093.36 2160 1104.76 2150.52 1107.01 2137.55L1186.9 1677.35L1421.78 2082.88C1428.39 2094.32 1442.41 2099.4 1454.94 2094.86C1467.49 2090.36 1474.93 2077.62 1472.55 2064.67L1387.84 1605.31L1749.31 1907.24C1759.48 1915.75 1774.42 1915.79 1784.64 1907.34C1794.87 1898.87 1797.43 1884.4 1790.69 1873.03L1551.63 1469.89L1996.16 1631.83C2008.6 1636.35 2022.71 1631.4 2029.4 1620C2036.06 1608.61 2033.44 1594.13 2023.16 1585.72L1658.58 1287.46L2132.47 1289.86C2146.54 1288.81 2157.25 1280.5 2159.58 1267.55C2161.91 1254.59 2154.41 1241.87 2141.83 1237.44L1695.71 1080L2141.83 922.562C2154.41 918.132 2161.91 905.41 2159.58 892.45C2157.28 879.543 2145.9 870.144 2132.6 870.144H2132.47L1658.58 872.543L2023.16 574.277C2033.44 565.866 2036.06 551.391 2029.4 540C2022.71 528.596 2008.6 523.652 1996.16 528.174L1551.63 690.108L1790.69 286.967C1797.43 275.603 1794.87 261.127 1784.64 252.664C1774.42 244.213 1759.48 244.252 1749.31 252.756L1387.84 554.687L1472.55 95.3306C1474.93 82.3843 1467.49 69.6357 1454.94 65.1401C1442.36 60.5918 1428.36 65.6938 1421.78 77.124L1186.9 482.651L1107.01 22.4517C1104.76 9.479 1093.36 0 1080 0C1066.64 0 1055.24 9.479 1053 22.4517L973.105 482.651L738.224 77.124C731.614 65.707 717.616 60.6445 705.064 65.1401C692.511 69.6357 685.071 82.3843 687.453 95.3306L772.161 554.687L410.687 252.756C400.517 244.252 385.582 244.213 375.359 252.664C365.135 261.127 362.565 275.603 369.31 286.967L608.366 690.108L163.843 528.174C151.398 523.652 137.293 528.596 130.602 540C123.938 551.391 126.561 565.866 136.838 574.277L501.417 872.543L27.5341 870.144H27.4003C14.0986 870.144 2.72393 879.543 0.422232 892.45C-1.90623 905.41 5.58768 918.132 18.1667 922.562L464.295 1080L18.1667 1237.44C5.58767 1241.87 -1.90623 1254.59 0.422232 1267.55ZM554.811 1105.42C565.704 1101.57 572.984 1091.4 572.984 1080C572.984 1068.6 565.704 1058.43 554.811 1054.58L187.476 924.948L577.667 926.925C590.113 927.387 599.587 919.872 603.548 909.154C607.509 898.449 604.217 886.438 595.305 879.148L295.12 633.564L661.117 766.903C671.957 770.858 684.188 767.667 691.601 758.927C699.042 750.199 700.112 737.807 694.278 727.958L497.456 396.022L795.071 644.625C803.903 652.021 816.509 653.128 826.492 647.42C836.502 641.711 841.828 630.426 839.767 619.207L770.02 240.983L963.416 574.884C969.144 584.785 980.545 590.124 991.973 588.094C1003.37 586.116 1012.26 577.296 1014.21 566.051L1080 187.154L1145.79 566.051C1147.74 577.296 1156.63 586.116 1168.03 588.094C1179.54 590.124 1190.86 584.785 1196.58 574.884L1389.98 240.983L1320.23 619.207C1318.17 630.426 1323.5 641.711 1333.51 647.42C1343.49 653.128 1356.1 652.021 1364.93 644.625L1662.54 396.022L1465.72 727.958C1459.89 737.807 1460.96 750.199 1468.4 758.927C1475.84 767.681 1488.07 770.884 1498.88 766.903L1864.88 633.564L1564.7 879.148C1555.78 886.438 1552.49 898.449 1556.45 909.154C1560.39 919.833 1570.69 926.925 1582.2 926.925H1582.33L1972.52 924.948L1605.19 1054.58C1594.3 1058.43 1587.02 1068.6 1587.02 1080C1587.02 1091.4 1594.3 1101.57 1605.19 1105.42L1972.52 1235.05L1582.33 1233.07H1582.2C1570.69 1233.07 1560.39 1240.17 1556.45 1250.85C1552.49 1261.55 1555.78 1273.56 1564.7 1280.85L1864.88 1526.44L1498.88 1393.1C1488.04 1389.12 1475.81 1392.35 1468.4 1401.07C1460.96 1409.8 1459.89 1422.19 1465.72 1432.04L1662.54 1763.98L1364.93 1515.38C1356.1 1508.03 1343.49 1506.91 1333.51 1512.58C1323.5 1518.29 1318.17 1529.57 1320.23 1540.79L1389.98 1919.02L1196.58 1585.12C1190.86 1575.22 1179.54 1569.96 1168.03 1571.91C1156.63 1573.88 1147.74 1582.7 1145.79 1593.95L1080 1972.85L1014.21 1593.95C1012.26 1582.7 1003.37 1573.88 991.973 1571.91C990.368 1571.63 988.789 1571.5 987.209 1571.5C977.494 1571.5 968.341 1576.6 963.416 1585.12L770.02 1919.02L839.767 1540.79C841.828 1529.57 836.502 1518.29 826.492 1512.58C816.509 1506.91 803.903 1508.03 795.071 1515.38L497.456 1763.98L694.278 1432.04C700.112 1422.19 699.042 1409.8 691.601 1401.07C684.188 1392.33 671.984 1389.14 661.117 1393.1L295.12 1526.44L595.305 1280.85C604.217 1273.56 607.509 1261.55 603.548 1250.85C599.587 1240.11 590.113 1232.09 577.667 1233.07L187.476 1235.05L554.811 1105.42Z" stroke="#F8F6F6" stroke-width="18" mask="url(#path-1-outside-1_424_611)"/>
</g>
<defs>
<clipPath id="clip0_424_611">
<rect width="2160" height="2160" fill="white" transform="matrix(-1 0 0 1 2160 0)"/>
</clipPath>
</defs>
</svg>
