<svg width="2195" height="2195" viewBox="0 0 2195 2195" fill="none" xmlns="http://www.w3.org/2000/svg">
<g clip-path="url(#clip0_424_562)">
<path d="M2130.77 444.695C2152.8 444.695 2170.59 426.908 2170.59 404.873C2170.59 382.837 2152.8 365.05 2130.77 365.05H1829.97V64.2578C1829.97 42.2227 1812.19 24.4353 1790.15 24.4353C1768.12 24.4353 1750.33 42.2227 1750.33 64.2578V365.05H1489.36V64.2578C1489.36 42.2227 1471.57 24.4353 1449.54 24.4353C1427.5 24.4353 1409.72 42.2227 1409.72 64.2578V365.05H1148.75V64.2578C1148.75 42.2227 1130.96 24.4353 1108.92 24.4353C1086.89 24.4353 1069.1 42.2227 1069.1 64.2578V365.05H808.13V64.2578C808.13 42.2227 790.343 24.4353 768.308 24.4353C746.273 24.4353 728.485 42.2227 728.485 64.2578V365.05H467.515V64.2578C467.515 42.2227 449.728 24.4353 427.693 24.4353C405.658 24.4353 387.87 42.2227 387.87 64.2578V365.05H87.0779C65.0427 365.05 47.2554 382.837 47.2554 404.873C47.2554 426.908 65.0427 444.695 87.0779 444.695H387.87V705.665H87.0779C65.0427 705.665 47.2554 723.452 47.2554 745.487C47.2554 767.523 65.0427 785.31 87.0779 785.31H387.87V1046.28H87.0779C65.0427 1046.28 47.2554 1064.07 47.2554 1086.1C47.2554 1108.14 65.0427 1125.92 87.0779 1125.92H387.87V1386.89H87.0779C65.0427 1386.89 47.2554 1404.68 47.2554 1426.72C47.2554 1448.75 65.0427 1466.54 87.0779 1466.54H387.87V1727.51H87.0779C65.0427 1727.51 47.2554 1745.3 47.2554 1767.33C47.2554 1789.37 65.0427 1807.15 87.0779 1807.15H387.87V2107.95C387.87 2129.98 405.658 2147.77 427.693 2147.77C449.728 2147.77 467.515 2129.98 467.515 2107.95V1807.15H728.485V2107.95C728.485 2129.98 746.273 2147.77 768.308 2147.77C790.343 2147.77 808.13 2129.98 808.13 2107.95V1807.15H1069.1V2107.95C1069.1 2129.98 1086.89 2147.77 1108.92 2147.77C1130.96 2147.77 1148.75 2129.98 1148.75 2107.95V1807.15H1409.72V2107.95C1409.72 2129.98 1427.5 2147.77 1449.54 2147.77C1471.57 2147.77 1489.36 2129.98 1489.36 2107.95V1807.15H1750.33V2107.95C1750.33 2129.98 1768.12 2147.77 1790.15 2147.77C1812.19 2147.77 1829.97 2129.98 1829.97 2107.95V1807.15H2130.77C2152.8 1807.15 2170.59 1789.37 2170.59 1767.33C2170.59 1745.3 2152.8 1727.51 2130.77 1727.51H1829.97V1466.54H2130.77C2152.8 1466.54 2170.59 1448.75 2170.59 1426.72C2170.59 1404.68 2152.8 1386.89 2130.77 1386.89H1829.97V1125.92H2130.77C2152.8 1125.92 2170.59 1108.14 2170.59 1086.1C2170.59 1064.07 2152.8 1046.28 2130.77 1046.28H1829.97V785.31H2130.77C2152.8 785.31 2170.59 767.523 2170.59 745.487C2170.59 723.452 2152.8 705.665 2130.77 705.665H1829.97V444.695H2130.77ZM728.22 1727.78H467.25V1466.81H728.22V1727.78ZM728.22 1387.16H467.25V1126.19H728.22V1387.16ZM728.22 1046.55H467.25V785.575H728.22V1046.55ZM728.22 705.93H467.25V444.961H728.22V705.93ZM1068.83 1728.04H807.865V1467.07H1068.83V1728.04ZM1068.83 1387.43H807.865V1126.46H1068.83V1387.43ZM1068.83 1046.81H807.865V785.841H1068.83V1046.81ZM1068.83 706.196H807.865V445.226H1068.83V706.196ZM1409.45 1728.31H1148.48V1467.34H1409.45V1728.31ZM1409.45 1387.69H1148.48V1126.72H1409.45V1387.69ZM1409.45 1047.08H1148.48V786.106H1409.45V1047.08ZM1409.45 706.461H1148.48V445.492H1409.45V706.461ZM1750.06 1728.57H1489.09V1467.6H1750.06V1728.57ZM1750.06 1387.96H1489.09V1126.99H1750.06V1387.96ZM1750.06 1047.34H1489.09V786.372H1750.06V1047.34ZM1750.06 706.727H1489.09V445.757H1750.06V706.727Z" fill="#429ED6" stroke="#429ED6" stroke-width="53.2551"/>
</g>
<defs>
<clipPath id="clip0_424_562">
<rect width="2194.11" height="2194.11" fill="white" transform="translate(0.0541992 0.839722)"/>
</clipPath>
</defs>
</svg>
