<svg width="2160" height="2160" viewBox="0 0 2160 2160" fill="none" xmlns="http://www.w3.org/2000/svg">
<mask id="path-1-outside-1_424_598" maskUnits="userSpaceOnUse" x="36.4512" y="13.2258" width="2111" height="2111" fill="black">
<rect fill="white" x="36.4512" y="13.2258" width="2111" height="2111"/>
<path d="M2097.57 436.952C2119.26 436.952 2136.77 419.441 2136.77 397.748C2136.77 376.056 2119.26 358.545 2097.57 358.545H1801.45V62.4292C1801.45 40.7367 1783.94 23.2258 1762.25 23.2258C1740.56 23.2258 1723.05 40.7367 1723.05 62.4292V358.545H1466.14V62.4292C1466.14 40.7367 1448.62 23.2258 1426.93 23.2258C1405.24 23.2258 1387.73 40.7367 1387.73 62.4292V358.545H1130.82V62.4292C1130.82 40.7367 1113.31 23.2258 1091.61 23.2258C1069.92 23.2258 1052.41 40.7367 1052.41 62.4292V358.545H795.497V62.4292C795.497 40.7367 777.986 23.2258 756.293 23.2258C734.601 23.2258 717.09 40.7367 717.09 62.4292V358.545H460.177V62.4292C460.177 40.7367 442.666 23.2258 420.974 23.2258C399.281 23.2258 381.771 40.7367 381.771 62.4292V358.545H85.6545C63.962 358.545 46.4512 376.056 46.4512 397.748C46.4512 419.441 63.962 436.952 85.6545 436.952H381.771V693.864H85.6545C63.962 693.864 46.4512 711.375 46.4512 733.068C46.4512 754.76 63.962 772.271 85.6545 772.271H381.771V1029.18H85.6545C63.962 1029.18 46.4512 1046.69 46.4512 1068.39C46.4512 1090.08 63.962 1107.59 85.6545 1107.59H381.771V1364.5H85.6545C63.962 1364.5 46.4512 1382.01 46.4512 1403.71C46.4512 1425.4 63.962 1442.91 85.6545 1442.91H381.771V1699.82H85.6545C63.962 1699.82 46.4512 1717.33 46.4512 1739.03C46.4512 1760.72 63.962 1778.23 85.6545 1778.23H381.771V2074.34C381.771 2096.04 399.281 2113.55 420.974 2113.55C442.666 2113.55 460.177 2096.04 460.177 2074.34V1778.23H717.09V2074.34C717.09 2096.04 734.601 2113.55 756.293 2113.55C777.986 2113.55 795.497 2096.04 795.497 2074.34V1778.23H1052.41V2074.34C1052.41 2096.04 1069.92 2113.55 1091.61 2113.55C1113.31 2113.55 1130.82 2096.04 1130.82 2074.34V1778.23H1387.73V2074.34C1387.73 2096.04 1405.24 2113.55 1426.93 2113.55C1448.62 2113.55 1466.14 2096.04 1466.14 2074.34V1778.23H1723.05V2074.34C1723.05 2096.04 1740.56 2113.55 1762.25 2113.55C1783.94 2113.55 1801.45 2096.04 1801.45 2074.34V1778.23H2097.57C2119.26 1778.23 2136.77 1760.72 2136.77 1739.03C2136.77 1717.33 2119.26 1699.82 2097.57 1699.82H1801.45V1442.91H2097.57C2119.26 1442.91 2136.77 1425.4 2136.77 1403.71C2136.77 1382.01 2119.26 1364.5 2097.57 1364.5H1801.45V1107.59H2097.57C2119.26 1107.59 2136.77 1090.08 2136.77 1068.39C2136.77 1046.69 2119.26 1029.18 2097.57 1029.18H1801.45V772.271H2097.57C2119.26 772.271 2136.77 754.76 2136.77 733.068C2136.77 711.375 2119.26 693.864 2097.57 693.864H1801.45V436.952H2097.57ZM716.828 1700.08H459.916V1443.17H716.828V1700.08ZM716.828 1364.76H459.916V1107.85H716.828V1364.76ZM716.828 1029.45H459.916V772.532H716.828V1029.45ZM716.828 694.126H459.916V437.213H716.828V694.126ZM1052.15 1700.34H795.235V1443.43H1052.15V1700.34ZM1052.15 1365.03H795.235V1108.11H1052.15V1365.03ZM1052.15 1029.71H795.235V772.794H1052.15V1029.71ZM1052.15 694.387H795.235V437.475H1052.15V694.387ZM1387.47 1700.61H1130.55V1443.69H1387.47V1700.61ZM1387.47 1365.29H1130.55V1108.37H1387.47V1365.29ZM1387.47 1029.97H1130.55V773.055H1387.47V1029.97ZM1387.47 694.648H1130.55V437.736H1387.47V694.648ZM1722.79 1700.87H1465.87V1443.96H1722.79V1700.87ZM1722.79 1365.55H1465.87V1108.64H1722.79V1365.55ZM1722.79 1030.23H1465.87V773.317H1722.79V1030.23ZM1722.79 694.91H1465.87V437.997H1722.79V694.91Z"/>
</mask>
<path d="M2097.57 436.952C2119.26 436.952 2136.77 419.441 2136.77 397.748C2136.77 376.056 2119.26 358.545 2097.57 358.545H1801.45V62.4292C1801.45 40.7367 1783.94 23.2258 1762.25 23.2258C1740.56 23.2258 1723.05 40.7367 1723.05 62.4292V358.545H1466.14V62.4292C1466.14 40.7367 1448.62 23.2258 1426.93 23.2258C1405.24 23.2258 1387.73 40.7367 1387.73 62.4292V358.545H1130.82V62.4292C1130.82 40.7367 1113.31 23.2258 1091.61 23.2258C1069.92 23.2258 1052.41 40.7367 1052.41 62.4292V358.545H795.497V62.4292C795.497 40.7367 777.986 23.2258 756.293 23.2258C734.601 23.2258 717.09 40.7367 717.09 62.4292V358.545H460.177V62.4292C460.177 40.7367 442.666 23.2258 420.974 23.2258C399.281 23.2258 381.771 40.7367 381.771 62.4292V358.545H85.6545C63.962 358.545 46.4512 376.056 46.4512 397.748C46.4512 419.441 63.962 436.952 85.6545 436.952H381.771V693.864H85.6545C63.962 693.864 46.4512 711.375 46.4512 733.068C46.4512 754.76 63.962 772.271 85.6545 772.271H381.771V1029.18H85.6545C63.962 1029.18 46.4512 1046.69 46.4512 1068.39C46.4512 1090.08 63.962 1107.59 85.6545 1107.59H381.771V1364.5H85.6545C63.962 1364.5 46.4512 1382.01 46.4512 1403.71C46.4512 1425.4 63.962 1442.91 85.6545 1442.91H381.771V1699.82H85.6545C63.962 1699.82 46.4512 1717.33 46.4512 1739.03C46.4512 1760.72 63.962 1778.23 85.6545 1778.23H381.771V2074.34C381.771 2096.04 399.281 2113.55 420.974 2113.55C442.666 2113.55 460.177 2096.04 460.177 2074.34V1778.23H717.09V2074.34C717.09 2096.04 734.601 2113.55 756.293 2113.55C777.986 2113.55 795.497 2096.04 795.497 2074.34V1778.23H1052.41V2074.34C1052.41 2096.04 1069.92 2113.55 1091.61 2113.55C1113.31 2113.55 1130.82 2096.04 1130.82 2074.34V1778.23H1387.73V2074.34C1387.73 2096.04 1405.24 2113.55 1426.93 2113.55C1448.62 2113.55 1466.14 2096.04 1466.14 2074.34V1778.23H1723.05V2074.34C1723.05 2096.04 1740.56 2113.55 1762.25 2113.55C1783.94 2113.55 1801.45 2096.04 1801.45 2074.34V1778.23H2097.57C2119.26 1778.23 2136.77 1760.72 2136.77 1739.03C2136.77 1717.33 2119.26 1699.82 2097.57 1699.82H1801.45V1442.91H2097.57C2119.26 1442.91 2136.77 1425.4 2136.77 1403.71C2136.77 1382.01 2119.26 1364.5 2097.57 1364.5H1801.45V1107.59H2097.57C2119.26 1107.59 2136.77 1090.08 2136.77 1068.39C2136.77 1046.69 2119.26 1029.18 2097.57 1029.18H1801.45V772.271H2097.57C2119.26 772.271 2136.77 754.76 2136.77 733.068C2136.77 711.375 2119.26 693.864 2097.57 693.864H1801.45V436.952H2097.57ZM716.828 1700.08H459.916V1443.17H716.828V1700.08ZM716.828 1364.76H459.916V1107.85H716.828V1364.76ZM716.828 1029.45H459.916V772.532H716.828V1029.45ZM716.828 694.126H459.916V437.213H716.828V694.126ZM1052.15 1700.34H795.235V1443.43H1052.15V1700.34ZM1052.15 1365.03H795.235V1108.11H1052.15V1365.03ZM1052.15 1029.71H795.235V772.794H1052.15V1029.71ZM1052.15 694.387H795.235V437.475H1052.15V694.387ZM1387.47 1700.61H1130.55V1443.69H1387.47V1700.61ZM1387.47 1365.29H1130.55V1108.37H1387.47V1365.29ZM1387.47 1029.97H1130.55V773.055H1387.47V1029.97ZM1387.47 694.648H1130.55V437.736H1387.47V694.648ZM1722.79 1700.87H1465.87V1443.96H1722.79V1700.87ZM1722.79 1365.55H1465.87V1108.64H1722.79V1365.55ZM1722.79 1030.23H1465.87V773.317H1722.79V1030.23ZM1722.79 694.91H1465.87V437.997H1722.79V694.91Z" fill="#F8F6F6"/>
<path d="M2097.57 436.952C2119.26 436.952 2136.77 419.441 2136.77 397.748C2136.77 376.056 2119.26 358.545 2097.57 358.545H1801.45V62.4292C1801.45 40.7367 1783.94 23.2258 1762.25 23.2258C1740.56 23.2258 1723.05 40.7367 1723.05 62.4292V358.545H1466.14V62.4292C1466.14 40.7367 1448.62 23.2258 1426.93 23.2258C1405.24 23.2258 1387.73 40.7367 1387.73 62.4292V358.545H1130.82V62.4292C1130.82 40.7367 1113.31 23.2258 1091.61 23.2258C1069.92 23.2258 1052.41 40.7367 1052.41 62.4292V358.545H795.497V62.4292C795.497 40.7367 777.986 23.2258 756.293 23.2258C734.601 23.2258 717.09 40.7367 717.09 62.4292V358.545H460.177V62.4292C460.177 40.7367 442.666 23.2258 420.974 23.2258C399.281 23.2258 381.771 40.7367 381.771 62.4292V358.545H85.6545C63.962 358.545 46.4512 376.056 46.4512 397.748C46.4512 419.441 63.962 436.952 85.6545 436.952H381.771V693.864H85.6545C63.962 693.864 46.4512 711.375 46.4512 733.068C46.4512 754.76 63.962 772.271 85.6545 772.271H381.771V1029.18H85.6545C63.962 1029.18 46.4512 1046.69 46.4512 1068.39C46.4512 1090.08 63.962 1107.59 85.6545 1107.59H381.771V1364.5H85.6545C63.962 1364.5 46.4512 1382.01 46.4512 1403.71C46.4512 1425.4 63.962 1442.91 85.6545 1442.91H381.771V1699.82H85.6545C63.962 1699.82 46.4512 1717.33 46.4512 1739.03C46.4512 1760.72 63.962 1778.23 85.6545 1778.23H381.771V2074.34C381.771 2096.04 399.281 2113.55 420.974 2113.55C442.666 2113.55 460.177 2096.04 460.177 2074.34V1778.23H717.09V2074.34C717.09 2096.04 734.601 2113.55 756.293 2113.55C777.986 2113.55 795.497 2096.04 795.497 2074.34V1778.23H1052.41V2074.34C1052.41 2096.04 1069.92 2113.55 1091.61 2113.55C1113.31 2113.55 1130.82 2096.04 1130.82 2074.34V1778.23H1387.73V2074.34C1387.73 2096.04 1405.24 2113.55 1426.93 2113.55C1448.62 2113.55 1466.14 2096.04 1466.14 2074.34V1778.23H1723.05V2074.34C1723.05 2096.04 1740.56 2113.55 1762.25 2113.55C1783.94 2113.55 1801.45 2096.04 1801.45 2074.34V1778.23H2097.57C2119.26 1778.23 2136.77 1760.72 2136.77 1739.03C2136.77 1717.33 2119.26 1699.82 2097.57 1699.82H1801.45V1442.91H2097.57C2119.26 1442.91 2136.77 1425.4 2136.77 1403.71C2136.77 1382.01 2119.26 1364.5 2097.57 1364.5H1801.45V1107.59H2097.57C2119.26 1107.59 2136.77 1090.08 2136.77 1068.39C2136.77 1046.69 2119.26 1029.18 2097.57 1029.18H1801.45V772.271H2097.57C2119.26 772.271 2136.77 754.76 2136.77 733.068C2136.77 711.375 2119.26 693.864 2097.57 693.864H1801.45V436.952H2097.57ZM716.828 1700.08H459.916V1443.17H716.828V1700.08ZM716.828 1364.76H459.916V1107.85H716.828V1364.76ZM716.828 1029.45H459.916V772.532H716.828V1029.45ZM716.828 694.126H459.916V437.213H716.828V694.126ZM1052.15 1700.34H795.235V1443.43H1052.15V1700.34ZM1052.15 1365.03H795.235V1108.11H1052.15V1365.03ZM1052.15 1029.71H795.235V772.794H1052.15V1029.71ZM1052.15 694.387H795.235V437.475H1052.15V694.387ZM1387.47 1700.61H1130.55V1443.69H1387.47V1700.61ZM1387.47 1365.29H1130.55V1108.37H1387.47V1365.29ZM1387.47 1029.97H1130.55V773.055H1387.47V1029.97ZM1387.47 694.648H1130.55V437.736H1387.47V694.648ZM1722.79 1700.87H1465.87V1443.96H1722.79V1700.87ZM1722.79 1365.55H1465.87V1108.64H1722.79V1365.55ZM1722.79 1030.23H1465.87V773.317H1722.79V1030.23ZM1722.79 694.91H1465.87V437.997H1722.79V694.91Z" stroke="#F8F6F6" stroke-width="20" mask="url(#path-1-outside-1_424_598)"/>
</svg>
