<svg width="2195" height="2195" viewBox="0 0 2195 2195" fill="none" xmlns="http://www.w3.org/2000/svg">
<path d="M2012.98 63.5945H462.142C242.29 63.5945 63.5742 243.875 63.5742 465.264C63.5742 686.654 242.461 866.931 462.142 866.931H1730.99C1856.62 866.931 1958.87 969.97 1958.87 1096.58C1958.87 1223.18 1856.62 1326.22 1730.99 1326.22H462.142C242.29 1326.22 63.5742 1506.5 63.5742 1727.89C63.5742 1949.28 242.461 2129.56 462.142 2129.56H2012.98C2060.09 2129.56 2098.33 2091.03 2098.33 2043.55C2098.33 1996.07 2060.09 1957.54 2012.98 1957.54H462.142C336.512 1957.54 234.268 1854.5 234.268 1727.89C234.268 1601.29 336.512 1498.24 462.142 1498.24H1730.99C1950.85 1498.24 2129.56 1317.97 2129.56 1096.58C2129.56 875.188 1950.68 694.911 1730.99 694.911H462.142C336.512 694.911 234.268 591.872 234.268 465.264C234.268 338.657 336.512 235.615 462.142 235.615L2012.98 235.615C2057.11 235.615 2098.33 195.034 2098.33 150.816C2098.33 106.598 2052.78 62.3806 2012.98 63.5945Z" fill="#7CE55E"/>
</svg>
