<svg width="2160" height="2150" viewBox="0 0 2160 2150" fill="none" xmlns="http://www.w3.org/2000/svg">
<path d="M1996.41 42.0244H445.568C225.716 42.0244 47 222.304 47 443.694C47 665.084 225.887 845.361 445.568 845.361H1714.42C1840.05 845.361 1942.3 948.4 1942.3 1075.01C1942.3 1201.61 1840.05 1304.65 1714.42 1304.65H445.568C225.716 1304.65 47 1484.93 47 1706.32C47 1927.71 225.887 2107.99 445.568 2107.99H1996.41C2043.52 2107.99 2081.75 2069.46 2081.75 2021.98C2081.75 1974.5 2043.52 1935.97 1996.41 1935.97H445.568C319.937 1935.97 217.694 1832.93 217.694 1706.32C217.694 1579.72 319.937 1476.67 445.568 1476.67H1714.42C1934.27 1476.67 2112.99 1296.4 2112.99 1075.01C2112.99 853.618 1934.1 673.341 1714.42 673.341H445.568C319.937 673.341 217.694 570.302 217.694 443.694C217.694 317.087 319.937 214.045 445.568 214.045L1996.41 214.045C2040.54 214.045 2081.75 173.464 2081.75 129.246C2081.75 85.0283 2036.2 40.8105 1996.41 42.0244Z" fill="#F8F6F6"/>
</svg>
