<svg width="745" height="338" viewBox="0 0 745 338" fill="none" xmlns="http://www.w3.org/2000/svg">
<path d="M142.391 286.31C125.765 286.31 110.211 283.306 95.7297 277.299C81.3559 271.292 69.0737 263.033 58.8833 252.52C48.8001 241.901 40.8623 229.136 35.0698 214.226C29.2774 199.208 26.3811 183.011 26.3811 165.634C26.3811 142.464 31.3155 121.707 41.1841 103.365C51.0527 85.0219 64.783 70.7553 82.3749 60.5648C100.074 50.2671 120.08 45.1183 142.391 45.1183C162.236 45.1183 180.042 49.1944 195.811 57.3468C211.579 65.4991 223.915 76.9768 232.818 91.7797C241.828 106.475 246.548 123.209 246.977 141.981L201.442 145.199C200.477 125.891 194.684 110.659 184.065 99.503C173.445 88.2399 159.554 82.6083 142.391 82.6083C121.796 82.6083 104.901 90.3852 91.7072 105.939C78.5133 121.493 71.9163 141.391 71.9163 165.634C71.9163 189.983 78.5133 209.989 91.7072 225.65C104.901 241.204 121.796 248.981 142.391 248.981C159.447 248.981 173.284 243.456 183.904 232.408C194.631 221.252 200.477 206.342 201.442 187.677L246.977 191.056C246.548 209.506 241.828 225.972 232.818 240.453C223.807 254.934 211.418 266.197 195.65 274.242C179.881 282.287 162.128 286.31 142.391 286.31Z" fill="white"/>
<path d="M257.606 114.864H302.799V279.627H257.606V114.864Z" fill="white"/>
<path d="M257.606 114.864H302.799V279.627H257.606V114.864Z" fill="white"/>
<path d="M370.072 285.368C352.801 285.368 339.125 280.97 329.042 272.174C319.066 263.378 314.078 251.418 314.078 236.293C314.078 219.988 320.192 207.331 332.421 198.32C344.756 189.202 362.777 184.161 386.483 183.195C400.214 182.552 410.19 180.675 416.411 177.564C422.74 174.346 425.422 169.841 424.456 164.048C423.598 159.114 420.595 155.091 415.446 151.98C410.404 148.87 404.29 147.314 397.103 147.314C387.556 147.314 379.457 149.942 372.807 155.198C366.156 160.347 362.831 166.622 362.831 174.024L318.744 170.645C318.744 153.053 326.092 138.572 340.787 127.202C355.59 115.724 374.362 109.985 397.103 109.985C419.2 109.985 436.738 115.67 449.718 127.041C462.804 138.304 469.348 153.482 469.348 172.576V280.058H424.778V247.073C417.377 272.603 399.141 285.368 370.072 285.368ZM359.613 230.661C359.613 236.454 361.597 240.798 365.566 243.694C369.642 246.591 375.006 248.039 381.656 248.039C393.992 248.039 404.236 243.373 412.389 234.04C420.648 224.708 424.778 213.338 424.778 199.929V196.711C417.591 204.863 406.811 209.905 392.437 211.836C391.364 211.943 389.433 212.158 386.644 212.479C383.855 212.694 381.71 212.909 380.208 213.123C378.707 213.338 376.722 213.713 374.255 214.249C371.788 214.786 369.803 215.483 368.302 216.341C366.907 217.092 365.459 218.111 363.957 219.398C362.455 220.578 361.329 222.134 360.578 224.064C359.935 225.995 359.613 228.194 359.613 230.661ZM623.124 260.75C607.034 277.162 586.492 285.368 561.498 285.368C536.505 285.368 515.91 277.162 499.712 260.75C483.622 244.231 475.577 223.206 475.577 197.676C475.577 172.147 483.622 151.176 499.712 134.764C515.91 118.245 536.505 109.985 561.498 109.985C586.492 109.985 607.034 118.245 623.124 134.764C639.214 151.176 647.259 172.147 647.259 197.676C647.259 223.206 639.214 244.231 623.124 260.75ZM531.893 160.991C524.598 170.109 520.951 182.337 520.951 197.676C520.951 213.016 524.598 225.244 531.893 234.362C539.294 243.48 549.163 248.039 561.498 248.039C573.834 248.039 583.649 243.48 590.943 234.362C598.345 225.244 602.046 213.016 602.046 197.676C602.046 182.337 598.345 170.109 590.943 160.991C583.649 151.873 573.834 147.314 561.498 147.314C549.163 147.314 539.294 151.873 531.893 160.991ZM668.452 200.895L691.461 49.3252H740.214L710.608 200.895H668.452ZM661.533 280.058V227.282H717.527V280.058H661.533Z" fill="white"/>
<path d="M309.673 60.8668C309.677 62.4542 308.912 63.2865 307.308 63.3679C303.923 63.5425 300.626 64.158 297.397 65.2449C293.551 66.5384 290.761 68.9871 289.251 72.9243C288.074 75.9958 286.938 79.0876 285.689 82.1271C284.922 83.9924 284.062 85.833 283.071 87.579C282.561 88.4781 281.763 89.2798 280.932 89.8866C279.642 90.8294 278.251 90.3973 277.606 88.8928C277.242 88.0416 277.106 87.0697 276.956 86.1371C276.591 83.8804 276.344 81.6019 275.932 79.3568C274.43 71.1754 269.568 66.2226 261.933 64.1769C259.099 63.4174 256.149 63.1235 253.254 62.607C252.651 62.4993 252.054 62.3596 251.46 62.2083C250.564 61.9799 250.136 61.3222 250.08 60.4143C250.024 59.5122 250.368 58.7847 251.176 58.3861C251.615 58.1693 252.091 58.0179 252.56 57.8797C262.617 54.897 270.659 49.0305 276.441 39.931C276.88 39.2413 277.278 38.524 277.686 37.8125C278.123 37.0486 278.562 36.3371 278.17 35.3274C278 34.8894 278.196 34.1838 278.435 33.7153C278.91 32.7826 279.727 32.688 280.348 33.5276C281.314 34.8371 282.885 35.7784 282.747 37.814C282.715 38.2985 283.195 38.8354 283.479 39.3228C287.867 46.8524 293.893 52.4424 301.763 55.8136C303.685 56.6372 305.652 57.3486 307.609 58.082C309.011 58.6072 309.669 59.4584 309.673 60.8697V60.8668ZM298.328 61.0487C297.868 60.7548 297.627 60.5656 297.359 60.4318C293.456 58.4879 290.24 55.6347 287.699 52.0569C285.666 49.1949 283.933 46.1045 282.076 43.1087C281.729 42.55 281.425 41.9621 280.972 41.159C280.458 41.9592 280.148 42.4903 279.792 42.9864C278.474 44.8241 277.237 46.736 275.795 48.4601C272.958 51.8517 269.584 54.6045 265.915 56.9791C265.387 57.3195 264.647 57.4898 264.486 58.3759C271.558 60.1102 275.61 65.0557 277.871 71.8403C278.611 74.0606 279.127 76.3595 279.744 78.6235C279.919 79.2651 280.088 79.9097 280.372 80.9762C280.96 80.0727 281.342 79.5285 281.682 78.9567C283.387 76.0831 285.009 73.1542 286.795 70.3373C289.254 66.4598 292.577 63.6124 296.752 61.8708C297.239 61.6671 297.693 61.3804 298.328 61.0458V61.0487Z" fill="white" stroke="white" stroke-width="4.87628"/>
</svg>
